<svg width="50" height="50" viewBox="0 0 50 50" fill="none" xmlns="http://www.w3.org/2000/svg">
<path d="M4.13504 42.7399C4.28156 42.8864 4.48029 42.9687 4.6875 42.9688H14.8438C15.051 42.9687 15.2497 42.8864 15.3962 42.7399L17.1875 40.9486V47.6562C17.1875 47.8634 17.2698 48.0622 17.4163 48.2087C17.5628 48.3552 17.7616 48.4375 17.9688 48.4375H32.0312C32.2384 48.4375 32.4372 48.3552 32.5837 48.2087C32.7302 48.0622 32.8125 47.8634 32.8125 47.6562V40.9486L34.6038 42.7399C34.7503 42.8864 34.949 42.9687 35.1562 42.9688H45.3125C45.5197 42.9687 45.7184 42.8864 45.865 42.7399L48.2087 40.3962C48.3552 40.2496 48.4375 40.0509 48.4375 39.8438V37.5C48.4375 37.2928 48.3552 37.0941 48.2087 36.9476C48.0622 36.8011 47.8634 36.7188 47.6562 36.7188H44.5312C44.5312 36.5116 44.4489 36.3128 44.3024 36.1663C44.1559 36.0198 43.9572 35.9375 43.75 35.9375H42.1875C42.0589 35.9375 41.9323 35.9693 41.8189 36.0299C41.7055 36.0906 41.6088 36.1784 41.5375 36.2854L40.4083 37.9791L36.5243 35.3898L34.7534 32.2906C33.8459 30.6944 32.3469 29.519 30.5802 29.0184L28.8066 28.5117C29.38 27.7168 29.6883 26.7614 29.6875 25.7812V21.875C29.6883 21.0283 29.4222 20.203 28.9272 19.5161C28.4321 18.8293 27.7332 18.3159 26.9298 18.049L24.8798 17.3656C24.3582 17.1917 23.8028 17.1443 23.2592 17.2272C22.7157 17.3101 22.1996 17.5209 21.7535 17.8424C21.3075 18.1639 20.9442 18.5868 20.6937 19.0762C20.4431 19.5656 20.3125 20.1076 20.3125 20.6574V25.7812C20.3117 26.7614 20.62 27.7168 21.1934 28.5117L19.4198 29.0184C17.6531 29.519 16.1541 30.6944 15.2466 32.2906L13.4757 35.3898L9.59167 37.9791L8.46252 36.2854C8.39119 36.1784 8.29453 36.0906 8.18114 36.0299C8.06774 35.9693 7.94111 35.9375 7.8125 35.9375H6.25C6.0428 35.9375 5.84409 36.0198 5.69758 36.1663C5.55106 36.3128 5.46875 36.5116 5.46875 36.7188H2.34375C2.13655 36.7188 1.93784 36.8011 1.79133 36.9476C1.64481 37.0941 1.5625 37.2928 1.5625 37.5V39.8438C1.5625 40.0509 1.64479 40.2496 1.79129 40.3962L4.13504 42.7399ZM41.4062 39.299L42.6056 37.5H42.9688V39.8438H44.5312V38.2812H46.875V39.5202L44.9889 41.4062H41.4062V39.299ZM21.875 20.6574C21.875 20.3552 21.9468 20.0573 22.0845 19.7882C22.2223 19.5192 22.422 19.2868 22.6671 19.11C22.9123 18.9333 23.196 18.8174 23.4948 18.7718C23.7936 18.7262 24.0989 18.7523 24.3856 18.8479L26.4358 19.5312C26.7998 19.6523 27.1305 19.8565 27.4018 20.1278C27.673 20.399 27.8773 20.7297 27.9983 21.0937H21.875V20.6574ZM21.875 22.6562H28.125V25.7812C28.125 26.6101 27.7958 27.4049 27.2097 27.991C26.6237 28.577 25.8288 28.9062 25 28.9062C24.1712 28.9062 23.3763 28.577 22.7903 27.991C22.2042 27.4049 21.875 26.6101 21.875 25.7812V22.6562ZM24.8592 33.5938H25.1408L26.4956 40.3682L25 41.8639L23.5044 40.3682L24.8592 33.5938ZM24.0867 30.3787C24.6896 30.4988 25.3104 30.4988 25.9133 30.3787L25.2523 32.0312H24.7477L24.0867 30.3787ZM10.1562 39.4806L14.4958 36.5875C14.5968 36.5202 14.6806 36.4304 14.7408 36.3251L16.6033 33.0659C17.3091 31.8243 18.4749 30.9101 19.849 30.5208L22.1928 29.8512L23.4071 32.887L21.8902 40.4718C21.865 40.5979 21.8713 40.7283 21.9085 40.8514C21.9458 40.9745 22.0129 41.0865 22.1038 41.1774L24.4475 43.5212C24.5941 43.6677 24.7928 43.75 25 43.75C25.2072 43.75 25.4059 43.6677 25.5525 43.5212L27.8962 41.1774C27.9871 41.0865 28.0542 40.9745 28.0915 40.8514C28.1287 40.7283 28.135 40.5979 28.1098 40.4718L26.5929 32.887L27.8072 29.8512L30.1509 30.5208C31.525 30.9101 32.6909 31.8243 33.3967 33.0659L35.2592 36.3251C35.3194 36.4304 35.4032 36.5202 35.5042 36.5875L39.8438 39.4806V41.4062H35.4798L32.5837 38.5101C32.4745 38.4008 32.3352 38.3264 32.1837 38.2963C32.0321 38.2661 31.8751 38.2816 31.7323 38.3407C31.5895 38.3998 31.4675 38.5 31.3817 38.6285C31.2958 38.7569 31.25 38.908 31.25 39.0625V46.875H18.75V39.0625C18.75 38.908 18.7042 38.7569 18.6183 38.6285C18.5325 38.5 18.4105 38.3998 18.2677 38.3407C18.1249 38.2816 17.9679 38.2661 17.8163 38.2963C17.6648 38.3264 17.5255 38.4008 17.4163 38.5101L14.5202 41.4062H10.1562V39.4806ZM3.125 38.2812H5.46875V39.8438H7.03125V37.5H7.39441L8.59375 39.299V41.4062H5.01108L3.125 39.5202V38.2812Z" fill="#FF910E"/>
<path d="M2.34375 32.0312H4.6875V34.375C4.6875 34.5822 4.76981 34.7809 4.91633 34.9274C5.06284 35.0739 5.26155 35.1562 5.46875 35.1562H11.7188C11.9259 35.1562 12.1247 35.0739 12.2712 34.9274C12.4177 34.7809 12.5 34.5822 12.5 34.375V32.0312H14.8438C15.0509 32.0312 15.2497 31.9489 15.3962 31.8024C15.5427 31.6559 15.625 31.4572 15.625 31.25V28.125C15.6238 27.0894 15.2119 26.0965 14.4796 25.3642C13.7473 24.6319 12.7544 24.2199 11.7188 24.2188H5.46875C4.43311 24.2199 3.44022 24.6319 2.70791 25.3642C1.9756 26.0965 1.56368 27.0894 1.5625 28.125V31.25C1.5625 31.4572 1.64481 31.6559 1.79133 31.8024C1.93784 31.9489 2.13655 32.0312 2.34375 32.0312V32.0312ZM10.9375 33.5938H6.25V30.4688C6.25 29.8471 6.49693 29.251 6.93647 28.8115C7.37601 28.3719 7.97215 28.125 8.59375 28.125C9.21535 28.125 9.81149 28.3719 10.251 28.8115C10.6906 29.251 10.9375 29.8471 10.9375 30.4688V33.5938ZM3.125 28.125C3.1257 27.5036 3.37286 26.9079 3.81224 26.4685C4.25163 26.0291 4.84736 25.782 5.46875 25.7812H11.7188C12.3401 25.782 12.9359 26.0291 13.3753 26.4685C13.8146 26.9079 14.0618 27.5036 14.0625 28.125V30.4688H12.5C12.5 29.4327 12.0884 28.4392 11.3559 27.7066C10.6233 26.9741 9.62975 26.5625 8.59375 26.5625C7.55775 26.5625 6.56418 26.9741 5.83161 27.7066C5.09905 28.4392 4.6875 29.4327 4.6875 30.4688H3.125V28.125Z" fill="#FF910E"/>
<path d="M8.59375 32.0312C9.02522 32.0312 9.375 31.6815 9.375 31.25C9.375 30.8185 9.02522 30.4688 8.59375 30.4688C8.16228 30.4688 7.8125 30.8185 7.8125 31.25C7.8125 31.6815 8.16228 32.0312 8.59375 32.0312Z" fill="#FF910E"/>
<path d="M40.625 20.3125C40.0036 20.3132 39.4079 20.5604 38.9685 20.9997C38.5291 21.4391 38.282 22.0349 38.2812 22.6562V32.0312C38.282 32.6526 38.5291 33.2484 38.9685 33.6878C39.4079 34.1271 40.0036 34.3743 40.625 34.375H45.3125C45.9339 34.3743 46.5296 34.1271 46.969 33.6878C47.4084 33.2484 47.6555 32.6526 47.6562 32.0312V22.6562C47.6555 22.0349 47.4084 21.4391 46.969 20.9997C46.5296 20.5604 45.9339 20.3132 45.3125 20.3125H40.625ZM46.0938 22.6562V32.0312C46.0935 32.2384 46.0111 32.437 45.8647 32.5834C45.7182 32.7299 45.5196 32.8123 45.3125 32.8125H40.625C40.4179 32.8123 40.2193 32.7299 40.0728 32.5834C39.9264 32.437 39.844 32.2384 39.8438 32.0312V22.6562C39.844 22.4491 39.9264 22.2505 40.0728 22.1041C40.2193 21.9576 40.4179 21.8752 40.625 21.875H41.0826L41.635 22.4274C41.7816 22.5739 41.9803 22.6562 42.1875 22.6562H43.75C43.9572 22.6562 44.1559 22.5739 44.3025 22.4274L44.8549 21.875H45.3125C45.5196 21.8752 45.7182 21.9576 45.8647 22.1041C46.0111 22.2505 46.0935 22.4491 46.0938 22.6562Z" fill="#FF910E"/>
<path d="M7.03125 22.6563H16.4063C17.0276 22.6555 17.6234 22.4084 18.0627 21.969C18.5021 21.5296 18.7493 20.9339 18.75 20.3125V10.0222C18.7508 9.71431 18.6906 9.40929 18.5728 9.12481C18.455 8.84034 18.2819 8.58206 18.0635 8.36492L15.0726 5.37401C14.8555 5.15569 14.5972 4.9826 14.3127 4.86476C14.0283 4.74692 13.7233 4.68668 13.4153 4.68751H7.03125C6.40987 4.68822 5.81414 4.93538 5.37475 5.37476C4.93537 5.81415 4.68821 6.40988 4.6875 7.03126V20.3125C4.68821 20.9339 4.93537 21.5296 5.37475 21.969C5.81414 22.4084 6.40987 22.6555 7.03125 22.6563ZM14.8438 7.35489L16.0826 8.59376H14.8438V7.35489ZM6.25 7.03126C6.25024 6.82413 6.33262 6.62555 6.47908 6.47909C6.62555 6.33263 6.82412 6.25025 7.03125 6.25001H13.2813V9.37501C13.2813 9.58221 13.3636 9.78092 13.5101 9.92743C13.6566 10.0739 13.8553 10.1563 14.0625 10.1563H17.1875V20.3125C17.1873 20.5196 17.1049 20.7182 16.9584 20.8647C16.812 21.0111 16.6134 21.0935 16.4063 21.0938H7.03125C6.82412 21.0935 6.62555 21.0111 6.47908 20.8647C6.33262 20.7182 6.25024 20.5196 6.25 20.3125V7.03126Z" fill="#FF910E"/>
<path d="M15.625 17.9688H7.8125V19.5312H15.625V17.9688Z" fill="#FF910E"/>
<path d="M15.625 14.8438H10.9375V16.4062H15.625V14.8438Z" fill="#FF910E"/>
<path d="M9.375 14.8438H7.8125V16.4062H9.375V14.8438Z" fill="#FF910E"/>
<path d="M15.625 11.7188H13.2812V13.2812H15.625V11.7188Z" fill="#FF910E"/>
<path d="M11.7188 11.7188H7.8125V13.2812H11.7188V11.7188Z" fill="#FF910E"/>
<path d="M11.7188 8.59375H7.8125V10.1562H11.7188V8.59375Z" fill="#FF910E"/>
<path d="M41.5271 3.67913L40.5185 1.95014C40.4583 1.84688 40.3752 1.75881 40.2755 1.69273C40.1759 1.62664 40.0625 1.5843 39.9439 1.56896C39.8254 1.55362 39.7049 1.56569 39.5917 1.60425C39.4786 1.64281 39.3758 1.70682 39.2912 1.79135L31.5684 9.51421L28.5568 11.02C28.4441 11.0763 28.3469 11.1591 28.2733 11.2613L28.2731 11.2611L28.2666 11.27L28.2656 11.2713L26.4257 13.8163C26.3421 13.932 26.2917 14.0684 26.2802 14.2107C26.2686 14.353 26.2962 14.4957 26.3601 14.6234L27.4262 16.7557C27.4911 16.8854 27.5908 16.9946 27.7142 17.0708C27.8376 17.1471 27.9799 17.1875 28.1249 17.1875H30.7671L33.6762 23.0056C33.722 23.0975 33.7855 23.1794 33.863 23.2466C33.9405 23.3139 34.0305 23.3652 34.1278 23.3977C34.2252 23.4301 34.328 23.443 34.4303 23.4357C34.5327 23.4284 34.6326 23.401 34.7244 23.355L36.2869 22.5738C36.4166 22.5089 36.5258 22.4092 36.602 22.2857C36.6783 22.1623 36.7187 22.0201 36.7187 21.875V17.9688C36.7187 17.8475 36.6905 17.7279 36.6362 17.6194L35.4947 15.3364L45.5271 12.47C45.6416 12.4373 45.747 12.3788 45.8355 12.2991C45.9239 12.2195 45.9929 12.1206 46.0373 12.0102C46.0817 11.8997 46.1003 11.7806 46.0916 11.6619C46.0829 11.5431 46.0472 11.428 45.9873 11.3251L44.608 8.96069L44.722 8.88469C45.3801 8.44621 45.8426 7.76969 46.0123 6.99733C46.182 6.22496 46.0457 5.41687 45.6321 4.7429C45.2184 4.06892 44.5596 3.58153 43.7941 3.38316C43.0286 3.18479 42.216 3.29088 41.5271 3.67913V3.67913ZM28.6078 15.625L27.9693 14.3481L28.784 13.2213L29.9859 15.625H28.6078ZM29.9544 12.0682L31.6818 11.2044L33.3268 14.4944L31.5993 15.3581L29.9544 12.0682ZM35.1562 21.3922L34.7244 21.6081L32.2981 16.7556L34.0255 15.8919L35.1562 18.1532V21.3922ZM34.7837 13.9144L32.9818 10.3106L39.6795 3.61283L44.1309 11.2438L34.7837 13.9144ZM44.3076 5.57301C44.5056 5.90207 44.5691 6.2948 44.4848 6.66949C44.4006 7.04417 44.1751 7.37194 43.8553 7.58459L43.8193 7.60862L42.3145 5.02903C42.6528 4.84517 43.049 4.79912 43.4204 4.90049C43.7918 5.00185 44.1096 5.24281 44.3076 5.57301V5.57301Z" fill="#FF910E"/>
</svg>
