<svg width="47" height="48" viewBox="0 0 47 48" fill="none" xmlns="http://www.w3.org/2000/svg">
<path d="M21.1563 7.59373C21.1562 7.73393 21.194 7.87155 21.2655 7.99216C21.337 8.11276 21.4396 8.2119 21.5626 8.27918L23.8478 9.52869L25.1232 12.5823C25.1826 12.7245 25.2828 12.846 25.4111 12.9314C25.5393 13.0169 25.69 13.0625 25.8441 13.0625C25.9983 13.0625 26.1489 13.0169 26.2772 12.9314C26.4055 12.846 26.5056 12.7245 26.565 12.5823L27.8405 9.52869L30.1257 8.27918C30.2487 8.21191 30.3513 8.11277 30.4228 7.99217C30.4944 7.87156 30.5321 7.73394 30.5321 7.59373C30.5321 7.45352 30.4944 7.3159 30.4228 7.1953C30.3513 7.07469 30.2487 6.97556 30.1257 6.90828L27.8405 5.65877L26.5646 2.60516C26.5052 2.46294 26.4051 2.34147 26.2768 2.25603C26.1486 2.17059 25.9979 2.125 25.8438 2.125C25.6896 2.125 25.5389 2.17059 25.4107 2.25603C25.2824 2.34147 25.1823 2.46294 25.1229 2.60516L23.8474 5.65877L21.5622 6.90828C21.4393 6.97561 21.3367 7.07478 21.2653 7.19538C21.1939 7.31598 21.1562 7.45357 21.1563 7.59373V7.59373ZM24.8379 6.89813C24.9935 6.813 25.1155 6.67744 25.1839 6.51375L25.8438 4.93318L26.504 6.51375C26.5724 6.67744 26.6944 6.813 26.85 6.89813L28.1219 7.59373L26.8496 8.28934C26.694 8.37447 26.572 8.51002 26.5036 8.67371L25.8438 10.2543L25.1835 8.67371C25.1151 8.51002 24.9931 8.37447 24.8375 8.28934L23.5656 7.59373L24.8379 6.89813Z" fill="#FF910E"/>
<path d="M43.0313 11.5C42.2651 11.4994 41.5156 11.7244 40.8764 12.1469C40.2372 12.5693 39.7364 13.1705 39.4366 13.8756C39.1367 14.5807 39.0509 15.3584 39.19 16.1119C39.3291 16.8654 39.6869 17.5612 40.2188 18.1128C39.7331 18.4186 39.3767 18.8922 39.2173 19.4436C39.0579 19.995 39.1066 20.5858 39.3542 21.1036L37.6182 22.8396C37.0786 23.3789 36.5086 23.887 35.9111 24.3614C35.9696 24.2499 36.0001 24.1259 36 24V13.5637C36.3968 13.1138 36.6557 12.5592 36.7458 11.9662C36.836 11.3732 36.7535 10.7667 36.5084 10.2193C36.2632 9.67186 35.8657 9.20654 35.3632 8.87891C34.8607 8.55128 34.2746 8.37518 33.6748 8.37164C33.075 8.36809 32.4868 8.53726 31.9805 8.85893C31.4742 9.1806 31.0712 9.64119 30.8196 10.1857C30.5679 10.7302 30.4783 11.3356 30.5615 11.9297C30.6446 12.5237 30.897 13.0813 31.2884 13.5358C29.1779 15.5149 26.3932 16.6163 23.5 16.6163C20.6068 16.6163 17.8221 15.5149 15.7116 13.5358C16.103 13.0813 16.3554 12.5237 16.4385 11.9297C16.5217 11.3356 16.4321 10.7302 16.1804 10.1857C15.9288 9.64119 15.5258 9.1806 15.0195 8.85893C14.5132 8.53726 13.9251 8.36809 13.3252 8.37164C12.7254 8.37518 12.1393 8.55128 11.6368 8.87891C11.1344 9.20654 10.7368 9.67186 10.4916 10.2193C10.2465 10.7667 10.164 11.3732 10.2542 11.9662C10.3443 12.5592 10.6032 13.1138 11 13.5637V24C11 24.1259 11.0305 24.2499 11.0891 24.3613C10.4916 23.8869 9.92164 23.3788 9.38203 22.8395L7.646 21.1036C7.89358 20.5858 7.94228 19.995 7.78285 19.4436C7.62343 18.8922 7.26698 18.4186 6.78125 18.1128C7.31316 17.5609 7.67096 16.8648 7.8101 16.1111C7.94924 15.3573 7.86356 14.5793 7.56375 13.8739C7.26393 13.1685 6.76322 12.5669 6.12398 12.1441C5.48474 11.7212 4.73521 11.4957 3.96875 11.4957C3.20229 11.4957 2.45276 11.7212 1.81352 12.1441C1.17428 12.5669 0.673572 13.1685 0.373756 13.8739C0.0739401 14.5793 -0.0117332 15.3573 0.127406 16.1111C0.266545 16.8648 0.624348 17.5609 1.15625 18.1128C0.783917 18.3474 0.485208 18.6821 0.294353 19.0787C0.103499 19.4752 0.0282213 19.9175 0.0771459 20.3549C0.12607 20.7922 0.297218 21.207 0.570977 21.5515C0.844736 21.8961 1.21003 22.1566 1.625 22.3031L1.625 42.8816C1.16874 43.042 0.773447 43.3399 0.493603 43.7344C0.213759 44.1288 0.0631392 44.6003 0.062502 45.084L0.062502 46.6562C0.062502 46.8634 0.144812 47.0621 0.291325 47.2087C0.437838 47.3552 0.636552 47.4375 0.843752 47.4375H7.09375C7.30095 47.4375 7.49967 47.3552 7.64618 47.2087C7.79269 47.0621 7.875 46.8634 7.875 46.6562V45.084C7.87439 44.6003 7.72377 44.1288 7.44393 43.7343C7.16408 43.3399 6.76878 43.0419 6.3125 42.8815V25.8861L6.94346 26.517C8.95044 28.5277 11.3085 30.1541 13.901 31.3159L8.69893 46.4015C8.65835 46.5192 8.64648 46.6449 8.6643 46.7681C8.68211 46.8913 8.72911 47.0084 8.80137 47.1098C8.87363 47.2111 8.96906 47.2937 9.07971 47.3507C9.19036 47.4077 9.31303 47.4375 9.4375 47.4375H37.5625C37.687 47.4375 37.8096 47.4077 37.9203 47.3507C38.0309 47.2937 38.1264 47.2111 38.1986 47.1098C38.2709 47.0084 38.3179 46.8913 38.3357 46.7681C38.3535 46.6449 38.3417 46.5192 38.3011 46.4015L33.0996 31.3158C35.6921 30.154 38.0501 28.5276 40.057 26.517L40.688 25.8861V42.8816C40.2316 43.0419 39.8362 43.3398 39.5563 43.7343C39.2764 44.1287 39.1257 44.6003 39.125 45.084V46.6562C39.125 46.8634 39.2073 47.0621 39.3538 47.2087C39.5003 47.3552 39.6991 47.4375 39.9063 47.4375H46.1563C46.3635 47.4375 46.5622 47.3552 46.7087 47.2087C46.8552 47.0621 46.9375 46.8634 46.9375 46.6562V45.084C46.9369 44.6003 46.7863 44.1288 46.5064 43.7343C46.2266 43.3399 45.8313 43.0419 45.375 42.8815V22.3031C45.79 22.1566 46.1553 21.8961 46.429 21.5515C46.7028 21.207 46.8739 20.7922 46.9229 20.3549C46.9718 19.9175 46.8965 19.4752 46.7057 19.0787C46.5148 18.6821 46.2161 18.3474 45.8438 18.1128C46.3756 17.5612 46.7334 16.8654 46.8725 16.1119C47.0116 15.3584 46.9258 14.5807 46.626 13.8756C46.3261 13.1705 45.8253 12.5693 45.1861 12.1469C44.5469 11.7244 43.7975 11.4994 43.0313 11.5V11.5ZM43.0313 13.0625C43.4948 13.0625 43.9479 13.1999 44.3334 13.4575C44.7188 13.715 45.0192 14.0811 45.1966 14.5093C45.374 14.9376 45.4204 15.4088 45.33 15.8635C45.2395 16.3181 45.0163 16.7357 44.6885 17.0635C44.3608 17.3913 43.9431 17.6145 43.4885 17.7049C43.0339 17.7954 42.5626 17.749 42.1343 17.5716C41.7061 17.3942 41.34 17.0938 41.0825 16.7083C40.825 16.3229 40.6875 15.8698 40.6875 15.4062C40.6882 14.7849 40.9354 14.1891 41.3748 13.7497C41.8142 13.3104 42.4099 13.0632 43.0313 13.0625V13.0625ZM42.25 42.75V22.4375H43.8125V42.75H42.25ZM32.875 14.5261C33.3875 14.6579 33.925 14.6579 34.4375 14.5261V23.2187H32.875V14.5261ZM33.6563 9.93748C33.9653 9.93748 34.2674 10.0291 34.5243 10.2008C34.7813 10.3725 34.9816 10.6165 35.0998 10.902C35.2181 11.1875 35.249 11.5017 35.1887 11.8048C35.1284 12.1079 34.9796 12.3863 34.7611 12.6048C34.5426 12.8234 34.2642 12.9722 33.9611 13.0325C33.658 13.0927 33.3438 13.0618 33.0583 12.9435C32.7728 12.8253 32.5288 12.625 32.3571 12.3681C32.1854 12.1111 32.0938 11.809 32.0938 11.5C32.0942 11.0857 32.259 10.6886 32.5519 10.3957C32.8449 10.1027 33.242 9.93797 33.6563 9.93748V9.93748ZM12.5625 14.5261C13.075 14.6579 13.6125 14.6579 14.125 14.5261V23.2187H12.5625V14.5261ZM13.3438 9.93748C13.6528 9.93748 13.9549 10.0291 14.2118 10.2008C14.4688 10.3725 14.6691 10.6165 14.7873 10.902C14.9056 11.1875 14.9365 11.5017 14.8762 11.8048C14.8159 12.1079 14.6671 12.3863 14.4486 12.6048C14.2301 12.8234 13.9517 12.9722 13.6486 13.0325C13.3455 13.0927 13.0313 13.0618 12.7458 12.9435C12.4603 12.8253 12.2163 12.625 12.0446 12.3681C11.8729 12.1111 11.7813 11.809 11.7813 11.5C11.7817 11.0857 11.9465 10.6886 12.2394 10.3957C12.5324 10.1027 12.9295 9.93797 13.3438 9.93748V9.93748ZM11.7813 24.7812H14.9063C15.1135 24.7812 15.3122 24.6989 15.4587 24.5524C15.6052 24.4059 15.6875 24.2072 15.6875 24V15.5588C17.9373 17.2587 20.6802 18.1785 23.5 18.1785C26.3198 18.1785 29.0627 17.2587 31.3125 15.5588V24C31.3125 24.2072 31.3948 24.4059 31.5413 24.5524C31.6878 24.6989 31.8866 24.7812 32.0938 24.7812H35.2188C35.2774 24.7811 35.3358 24.7743 35.3929 24.7611C34.2143 25.6354 32.9425 26.3763 31.6007 26.9704L30.4886 23.7453C30.4356 23.5916 30.3359 23.4582 30.2035 23.3638C30.0711 23.2695 29.9126 23.2187 29.75 23.2187H17.25C17.0874 23.2187 16.9289 23.2695 16.7965 23.3638C16.6641 23.4582 16.5644 23.5916 16.5114 23.7453L15.3993 26.9704C14.0575 26.3763 12.7857 25.6353 11.6071 24.7611C11.6642 24.7743 11.7226 24.7811 11.7813 24.7812V24.7812ZM30.147 27.5481C25.8458 29.0673 21.1541 29.0673 16.8529 27.5481L17.8066 24.7812H29.1934L30.147 27.5481ZM3.1875 42.75L3.1875 22.4375H4.75V42.75H3.1875ZM2.40625 19.3125H5.53125C5.73845 19.3125 5.93717 19.3948 6.08368 19.5413C6.23019 19.6878 6.3125 19.8865 6.3125 20.0937C6.3125 20.3009 6.23019 20.4996 6.08368 20.6462C5.93717 20.7927 5.73845 20.875 5.53125 20.875H2.40625C2.19905 20.875 2.00034 20.7927 1.85383 20.6462C1.70731 20.4996 1.625 20.3009 1.625 20.0937C1.625 19.8865 1.70731 19.6878 1.85383 19.5413C2.00034 19.3948 2.19905 19.3125 2.40625 19.3125ZM3.96875 13.0625C4.4323 13.0625 4.88544 13.1999 5.27087 13.4575C5.6563 13.715 5.9567 14.0811 6.13409 14.5093C6.31149 14.9376 6.3579 15.4088 6.26747 15.8635C6.17703 16.3181 5.95381 16.7357 5.62603 17.0635C5.29825 17.3913 4.88064 17.6145 4.42599 17.7049C3.97135 17.7954 3.5001 17.749 3.07184 17.5716C2.64357 17.3942 2.27753 17.0938 2.02 16.7083C1.76246 16.3229 1.625 15.8698 1.625 15.4062C1.62573 14.7849 1.87289 14.1891 2.31227 13.7497C2.75165 13.3104 3.34737 13.0632 3.96875 13.0625V13.0625ZM6.3125 45.875H1.625V45.084C1.62526 44.8794 1.70662 44.6833 1.85125 44.5387C1.99588 44.3941 2.19196 44.3127 2.39649 44.3125H5.54102C5.74555 44.3127 5.94163 44.3941 6.08625 44.5387C6.23088 44.6833 6.31224 44.8794 6.3125 45.084V45.875ZM10.5333 45.875L15.3492 31.9089C20.6073 33.8637 26.3927 33.8637 31.6508 31.9089L36.4667 45.875H10.5333ZM38.9513 25.4122C36.9221 27.4413 34.5132 29.0509 31.862 30.1491C29.2108 31.2473 26.3693 31.8125 23.4996 31.8125C20.63 31.8125 17.7884 31.2473 15.1372 30.1491C12.486 29.0509 10.0771 27.4413 8.04795 25.4122L6.3125 23.6763V22.3031C6.39031 22.2756 6.46662 22.244 6.54112 22.2085L8.27705 23.9445C12.3145 27.9818 17.7903 30.2499 23.5 30.2499C29.2097 30.2499 34.6855 27.9818 38.723 23.9445L40.4589 22.2085C40.5334 22.244 40.6097 22.2756 40.6875 22.3031V23.6763L38.9513 25.4122ZM45.375 45.875H40.6875V45.084C40.6878 44.8794 40.7691 44.6833 40.9138 44.5387C41.0584 44.3941 41.2545 44.3127 41.459 44.3125H44.6035C44.8081 44.3127 45.0041 44.3941 45.1488 44.5387C45.2934 44.6833 45.3747 44.8794 45.375 45.084V45.875ZM44.5938 20.875H41.4688C41.2616 20.875 41.0628 20.7927 40.9163 20.6462C40.7698 20.4996 40.6875 20.3009 40.6875 20.0937C40.6875 19.8865 40.7698 19.6878 40.9163 19.5413C41.0628 19.3948 41.2616 19.3125 41.4688 19.3125H44.5938C44.801 19.3125 44.9997 19.3948 45.1462 19.5413C45.2927 19.6878 45.375 19.8865 45.375 20.0937C45.375 20.3009 45.2927 20.4996 45.1462 20.6462C44.9997 20.7927 44.801 20.875 44.5938 20.875Z" fill="#FF910E"/>
<path d="M17.25 2.125H18.8125V3.6875H17.25V2.125Z" fill="#FF910E"/>
<path d="M20.375 2.125H21.9375V3.6875H20.375V2.125Z" fill="#FF910E"/>
<path d="M18.8125 0.5625H20.375V2.125H18.8125V0.5625Z" fill="#FF910E"/>
<path d="M18.8125 3.6875H20.375V5.25H18.8125V3.6875Z" fill="#FF910E"/>
<path d="M18.8125 10.7188H20.375V12.2812H18.8125V10.7188Z" fill="#FF910E"/>
<path d="M36 2.125H37.5625V3.6875H36V2.125Z" fill="#FF910E"/>
<path d="M10.2188 2.90625H11.7812V4.46875H10.2188V2.90625Z" fill="#FF910E"/>
</svg>
