<svg width="39" height="50" viewBox="0 0 39 50" fill="none" xmlns="http://www.w3.org/2000/svg">
<path d="M11.3281 3.05078C11.2383 3.05073 11.1494 3.06838 11.0664 3.10271C10.9835 3.13705 10.9081 3.1874 10.8446 3.25089C10.7811 3.31437 10.7308 3.38975 10.6964 3.47271C10.6621 3.55567 10.6445 3.64459 10.6445 3.73438V5.51641H9.47888V3.73438C9.47888 3.55307 9.40686 3.3792 9.27866 3.251C9.15046 3.1228 8.97659 3.05078 8.79529 3.05078C8.61399 3.05078 8.44011 3.1228 8.31191 3.251C8.18372 3.3792 8.11169 3.55307 8.11169 3.73438V8.66602C8.11169 8.84732 8.18372 9.02119 8.31191 9.14939C8.44011 9.27759 8.61399 9.34961 8.79529 9.34961C8.97659 9.34961 9.15046 9.27759 9.27866 9.14939C9.40686 9.02119 9.47888 8.84732 9.47888 8.66602V6.88359H10.6445V8.66602C10.6445 8.84732 10.7165 9.02119 10.8447 9.14939C10.9729 9.27759 11.1468 9.34961 11.3281 9.34961C11.5094 9.34961 11.6833 9.27759 11.8115 9.14939C11.9397 9.02119 12.0117 8.84732 12.0117 8.66602V3.73438C12.0117 3.64459 11.9941 3.55567 11.9598 3.47271C11.9254 3.38975 11.8751 3.31437 11.8116 3.25089C11.7481 3.1874 11.6727 3.13705 11.5898 3.10271C11.5068 3.06838 11.4179 3.05073 11.3281 3.05078V3.05078Z" fill="#FF910E"/>
<path d="M16.0473 3.05078H13.5145C13.4247 3.05073 13.3358 3.06838 13.2528 3.10271C13.1698 3.13705 13.0945 3.1874 13.031 3.25089C12.9675 3.31437 12.9171 3.38975 12.8828 3.47271C12.8485 3.55567 12.8308 3.64459 12.8309 3.73438V8.66602C12.8309 8.84732 12.9029 9.02119 13.0311 9.14939C13.1593 9.27759 13.3332 9.34961 13.5145 9.34961H16.0473C16.2286 9.34961 16.4025 9.27759 16.5307 9.14939C16.6589 9.02119 16.7309 8.84732 16.7309 8.66602V3.73438C16.7309 3.64459 16.7133 3.55567 16.6789 3.47271C16.6446 3.38975 16.5943 3.31437 16.5308 3.25089C16.4673 3.1874 16.3919 3.13705 16.3089 3.10271C16.226 3.06838 16.1371 3.05073 16.0473 3.05078V3.05078ZM15.3637 7.98242H14.1981V4.41797H15.3637V7.98242Z" fill="#FF910E"/>
<path d="M20.7664 3.05078H18.2336C18.1438 3.05078 18.0549 3.06846 17.972 3.10282C17.889 3.13717 17.8137 3.18752 17.7502 3.251C17.6867 3.31448 17.6364 3.38984 17.602 3.47277C17.5677 3.55571 17.55 3.6446 17.55 3.73438C17.55 3.82415 17.5677 3.91304 17.602 3.99598C17.6364 4.07891 17.6867 4.15427 17.7502 4.21775C17.8137 4.28123 17.889 4.33158 17.972 4.36593C18.0549 4.40029 18.1438 4.41797 18.2336 4.41797H18.8164V8.66602C18.8164 8.84732 18.8884 9.02119 19.0166 9.14939C19.1448 9.27759 19.3187 9.34961 19.5 9.34961C19.6813 9.34961 19.8552 9.27759 19.9834 9.14939C20.1116 9.02119 20.1836 8.84732 20.1836 8.66602V4.41797H20.7664C20.9477 4.41797 21.1216 4.34595 21.2498 4.21775C21.378 4.08955 21.45 3.91568 21.45 3.73438C21.45 3.55307 21.378 3.3792 21.2498 3.251C21.1216 3.1228 20.9477 3.05078 20.7664 3.05078V3.05078Z" fill="#FF910E"/>
<path d="M25.4856 4.41797C25.6669 4.41797 25.8407 4.34595 25.9689 4.21775C26.0971 4.08955 26.1692 3.91568 26.1692 3.73438C26.1692 3.55307 26.0971 3.3792 25.9689 3.251C25.8407 3.1228 25.6669 3.05078 25.4856 3.05078H22.9528C22.863 3.05073 22.7741 3.06838 22.6911 3.10271C22.6081 3.13705 22.5328 3.1874 22.4693 3.25089C22.4058 3.31437 22.3554 3.38975 22.3211 3.47271C22.2868 3.55567 22.2691 3.64459 22.2692 3.73438V8.66602C22.2692 8.84732 22.3412 9.02119 22.4694 9.14939C22.5976 9.27759 22.7715 9.34961 22.9528 9.34961H25.4856C25.6669 9.34961 25.8407 9.27759 25.9689 9.14939C26.0971 9.02119 26.1692 8.84732 26.1692 8.66602C26.1692 8.48472 26.0971 8.31084 25.9689 8.18264C25.8407 8.05444 25.6669 7.98242 25.4856 7.98242H23.6364V6.88359H25.4856C25.6669 6.88359 25.8407 6.81157 25.9689 6.68337C26.0971 6.55517 26.1692 6.3813 26.1692 6.2C26.1692 6.0187 26.0971 5.84483 25.9689 5.71663C25.8407 5.58843 25.6669 5.51641 25.4856 5.51641H23.6364V4.41797H25.4856Z" fill="#FF910E"/>
<path d="M30.2031 7.98242H28.3555V3.73438C28.3555 3.55307 28.2834 3.3792 28.1553 3.251C28.0271 3.1228 27.8532 3.05078 27.6719 3.05078C27.4906 3.05078 27.3167 3.1228 27.1885 3.251C27.0603 3.3792 26.9883 3.55307 26.9883 3.73438V8.66602C26.9883 8.84732 27.0603 9.02119 27.1885 9.14939C27.3167 9.27759 27.4906 9.34961 27.6719 9.34961H30.2031C30.3844 9.34961 30.5583 9.27759 30.6865 9.14939C30.8147 9.02119 30.8867 8.84732 30.8867 8.66602C30.8867 8.48472 30.8147 8.31084 30.6865 8.18264C30.5583 8.05444 30.3844 7.98242 30.2031 7.98242V7.98242Z" fill="#FF910E"/>
<path d="M37.5176 11.034H34.1484V0.682422C34.1481 0.501325 34.076 0.327751 33.9478 0.199805C33.8196 0.0718601 33.6459 -2.66102e-07 33.4648 0L5.53516 0C5.35386 0 5.17998 0.0720213 5.05178 0.20022C4.92358 0.328419 4.85156 0.502293 4.85156 0.683594V11.0352H1.48242C1.39264 11.0351 1.30372 11.0528 1.22076 11.0871C1.1378 11.1214 1.06242 11.1718 0.998934 11.2353C0.935446 11.2987 0.885094 11.3741 0.850759 11.4571C0.816423 11.54 0.798777 11.629 0.798828 11.7188L0.798828 49.3164C0.798828 49.4977 0.87085 49.6716 0.999048 49.7998C1.12725 49.928 1.30112 50 1.48242 50H13.1652C13.1691 50 13.173 50 13.1766 50H25.823C25.827 50 25.8309 50 25.8348 50H37.5176C37.6989 50 37.8728 49.928 38.001 49.7998C38.1291 49.6716 38.2012 49.4977 38.2012 49.3164V11.7188C38.2014 11.6289 38.1838 11.5398 38.1496 11.4567C38.1153 11.3736 38.065 11.2981 38.0015 11.2345C37.938 11.1709 37.8625 11.1204 37.7795 11.086C37.6965 11.0516 37.6075 11.0339 37.5176 11.034ZM6.21875 1.36719L32.7812 1.36719V11.0352H6.21875V1.36719ZM25.1395 40.8691V48.6328H20.1836V40.8691H25.1395ZM18.8164 48.6328H13.8602V40.8691H18.8164V48.6328ZM36.834 48.6328H26.5066V40.1855C26.5066 40.0042 26.4346 39.8304 26.3064 39.7022C26.1782 39.574 26.0043 39.502 25.823 39.502H13.1766C12.9953 39.5021 12.8215 39.5741 12.6933 39.7023C12.5651 39.8305 12.4931 40.0043 12.493 40.1855V48.6328H2.16602L2.16602 12.4012H36.834V48.6328Z" fill="#FF910E"/>
<path d="M12.5664 14.9402H5.38867C5.29879 14.9401 5.20978 14.9578 5.12674 14.9922C5.0437 15.0266 4.96827 15.0771 4.90477 15.1407C4.84127 15.2043 4.79094 15.2798 4.75667 15.3629C4.72241 15.446 4.70487 15.5351 4.70508 15.625V20.5097C4.70503 20.5995 4.72267 20.6884 4.75701 20.7714C4.79135 20.8543 4.8417 20.9297 4.90519 20.9932C4.96867 21.0567 5.04405 21.107 5.12701 21.1414C5.20997 21.1757 5.29889 21.1934 5.38867 21.1933H12.5664C12.6562 21.1934 12.7451 21.1757 12.8281 21.1414C12.911 21.107 12.9864 21.0567 13.0499 20.9932C13.1134 20.9297 13.1637 20.8543 13.1981 20.7714C13.2324 20.6884 13.2501 20.5995 13.25 20.5097V15.625C13.2502 15.5351 13.2327 15.446 13.1984 15.3629C13.1641 15.2798 13.1138 15.2043 13.0503 15.1407C12.9868 15.0771 12.9114 15.0266 12.8283 14.9922C12.7453 14.9578 12.6563 14.9401 12.5664 14.9402ZM11.8828 19.8261H6.07227V16.3074H11.8828V19.8261Z" fill="#FF910E"/>
<path d="M23.0887 14.9402H15.911C15.8211 14.9402 15.7321 14.9579 15.6491 14.9923C15.5661 15.0268 15.4907 15.0772 15.4272 15.1408C15.3637 15.2044 15.3133 15.2799 15.2791 15.363C15.2448 15.4461 15.2272 15.5351 15.2274 15.625V20.5097C15.2274 20.691 15.2994 20.8649 15.4276 20.9931C15.5558 21.1213 15.7297 21.1933 15.911 21.1933H23.0887C23.1785 21.1934 23.2674 21.1757 23.3503 21.1414C23.4333 21.107 23.5087 21.0567 23.5722 20.9932C23.6357 20.9297 23.686 20.8543 23.7203 20.7714C23.7547 20.6884 23.7723 20.5995 23.7723 20.5097V15.625C23.7725 15.5351 23.755 15.446 23.7207 15.3629C23.6864 15.2798 23.6361 15.2043 23.5726 15.1407C23.5091 15.0771 23.4337 15.0266 23.3506 14.9922C23.2676 14.9578 23.1786 14.9401 23.0887 14.9402ZM22.4051 19.8261H16.5945V16.3074H22.4051V19.8261Z" fill="#FF910E"/>
<path d="M25.75 15.625V20.5098C25.7499 20.5996 25.7676 20.6885 25.8019 20.7714C25.8363 20.8544 25.8866 20.9298 25.9501 20.9933C26.0136 21.0567 26.089 21.1071 26.1719 21.1414C26.2549 21.1758 26.3438 21.1934 26.4336 21.1934H33.6113C33.7011 21.1934 33.79 21.1758 33.873 21.1414C33.956 21.1071 34.0313 21.0567 34.0948 20.9933C34.1583 20.9298 34.2087 20.8544 34.243 20.7714C34.2773 20.6885 34.295 20.5996 34.2949 20.5098V15.625C34.295 15.5352 34.2773 15.4463 34.243 15.3633C34.2087 15.2804 34.1583 15.205 34.0948 15.1415C34.0313 15.078 33.956 15.0277 33.873 14.9933C33.79 14.959 33.7011 14.9414 33.6113 14.9414H26.4336C26.3438 14.9414 26.2549 14.959 26.1719 14.9933C26.089 15.0277 26.0136 15.078 25.9501 15.1415C25.8866 15.205 25.8363 15.2804 25.8019 15.3633C25.7676 15.4463 25.7499 15.5352 25.75 15.625ZM27.1172 16.3086H32.9277V19.8273H27.1172V16.3086Z" fill="#FF910E"/>
<path d="M12.5664 22.823H5.38867C5.20737 22.823 5.0335 22.895 4.9053 23.0232C4.7771 23.1514 4.70508 23.3253 4.70508 23.5066V28.3929C4.70508 28.5742 4.7771 28.7481 4.9053 28.8763C5.0335 29.0045 5.20737 29.0765 5.38867 29.0765H12.5664C12.7477 29.0765 12.9216 29.0045 13.0498 28.8763C13.178 28.7481 13.25 28.5742 13.25 28.3929V23.5066C13.25 23.3253 13.178 23.1514 13.0498 23.0232C12.9216 22.895 12.7477 22.823 12.5664 22.823ZM11.8828 27.7093H6.07227V24.1902H11.8828V27.7093Z" fill="#FF910E"/>
<path d="M23.0887 22.823H15.9109C15.7297 22.8231 15.5559 22.8952 15.4277 23.0233C15.2995 23.1515 15.2275 23.3253 15.2274 23.5066V28.3929C15.2275 28.5742 15.2995 28.748 15.4277 28.8762C15.5559 29.0044 15.7297 29.0764 15.9109 29.0765H23.0887C23.27 29.0765 23.4439 29.0045 23.5721 28.8763C23.7003 28.7481 23.7723 28.5742 23.7723 28.3929V23.5066C23.7723 23.3253 23.7003 23.1514 23.5721 23.0232C23.4439 22.895 23.27 22.823 23.0887 22.823ZM22.4051 27.7093H16.5945V24.1902H22.4051V27.7093Z" fill="#FF910E"/>
<path d="M33.6113 22.823H26.4336C26.2523 22.823 26.0784 22.895 25.9502 23.0232C25.822 23.1514 25.75 23.3253 25.75 23.5066V28.3929C25.75 28.5742 25.822 28.7481 25.9502 28.8763C26.0784 29.0045 26.2523 29.0765 26.4336 29.0765H33.6113C33.7926 29.0765 33.9665 29.0045 34.0947 28.8763C34.2229 28.7481 34.2949 28.5742 34.2949 28.3929V23.5066C34.2949 23.3253 34.2229 23.1514 34.0947 23.0232C33.9665 22.895 33.7926 22.823 33.6113 22.823ZM32.9277 27.7093H27.1172V24.1902H32.9277V27.7093Z" fill="#FF910E"/>
<path d="M12.5664 30.7063H5.38867C5.20737 30.7063 5.0335 30.7783 4.9053 30.9065C4.7771 31.0347 4.70508 31.2086 4.70508 31.3899V36.2762C4.70508 36.4575 4.7771 36.6314 4.9053 36.7596C5.0335 36.8878 5.20737 36.9598 5.38867 36.9598H12.5664C12.7477 36.9598 12.9216 36.8878 13.0498 36.7596C13.178 36.6314 13.25 36.4575 13.25 36.2762V31.3899C13.25 31.2086 13.178 31.0347 13.0498 30.9065C12.9216 30.7783 12.7477 30.7063 12.5664 30.7063ZM11.8828 35.5926H6.07227V32.0735H11.8828V35.5926Z" fill="#FF910E"/>
<path d="M23.0887 30.7063H15.9109C15.7297 30.7064 15.5559 30.7785 15.4277 30.9066C15.2995 31.0348 15.2275 31.2086 15.2274 31.3899V36.2762C15.2275 36.4575 15.2995 36.6313 15.4277 36.7595C15.5559 36.8877 15.7297 36.9597 15.9109 36.9598H23.0887C23.27 36.9598 23.4439 36.8878 23.5721 36.7596C23.7003 36.6314 23.7723 36.4575 23.7723 36.2762V31.3899C23.7723 31.2086 23.7003 31.0347 23.5721 30.9065C23.4439 30.7783 23.27 30.7063 23.0887 30.7063ZM22.4051 35.5926H16.5945V32.0735H22.4051V35.5926Z" fill="#FF910E"/>
<path d="M33.6113 30.7063H26.4336C26.2523 30.7063 26.0784 30.7783 25.9502 30.9065C25.822 31.0347 25.75 31.2086 25.75 31.3899V36.2762C25.75 36.4575 25.822 36.6314 25.9502 36.7596C26.0784 36.8878 26.2523 36.9598 26.4336 36.9598H33.6113C33.7926 36.9598 33.9665 36.8878 34.0947 36.7596C34.2229 36.6314 34.2949 36.4575 34.2949 36.2762V31.3899C34.2949 31.2086 34.2229 31.0347 34.0947 30.9065C33.9665 30.7783 33.7926 30.7063 33.6113 30.7063ZM32.9277 35.5926H27.1172V32.0735H32.9277V35.5926Z" fill="#FF910E"/>
</svg>
