<svg width="51" height="46" viewBox="0 0 51 46" fill="none" xmlns="http://www.w3.org/2000/svg">
<path d="M49.968 29.0482C49.0169 27.6505 47.1017 27.2806 45.6997 28.2228L39.3188 32.4931L39.3003 19.2011L41.5171 21.2778C41.9885 21.7193 42.6031 21.9622 43.2484 21.9622C43.2496 21.9622 43.251 21.9622 43.2522 21.9622C43.9489 21.9613 44.6216 21.6693 45.0978 21.161C45.5604 20.6671 45.803 20.0228 45.781 19.3464C45.7589 18.67 45.4747 18.0428 44.9809 17.5802L40.7782 13.6433C40.4905 13.3738 40.0389 13.3885 39.7694 13.6762C39.5 13.9639 39.5147 14.4155 39.8023 14.685L44.005 18.6219C44.2206 18.8239 44.3446 19.0977 44.3543 19.3929C44.3639 19.6881 44.258 19.9695 44.056 20.185C43.845 20.4102 43.5589 20.5344 43.2501 20.5348C43.2495 20.5348 43.249 20.5348 43.2484 20.5348C42.9669 20.5348 42.6986 20.4287 42.4929 20.236C42.4928 20.2359 42.4928 20.2359 42.4928 20.2359L25.8051 4.60315C25.5301 4.34563 25.1021 4.34602 24.8278 4.60452L8.1835 20.284C7.96855 20.4866 7.6875 20.5926 7.39219 20.5844C7.09687 20.5756 6.82275 20.4523 6.62021 20.2371C6.41768 20.0222 6.31094 19.7411 6.31982 19.4459C6.32861 19.1506 6.45195 18.8765 6.66689 18.674L24.5553 1.82259C24.9793 1.42307 25.6445 1.4221 26.0696 1.82053L36.5352 11.6244C36.8228 11.8939 37.2744 11.8792 37.5439 11.5915C37.8134 11.3038 37.7986 10.8523 37.511 10.5827L27.0456 0.778835C26.0717 -0.133665 24.5479 -0.131614 23.5766 0.783621L17.8501 6.17815L17.8485 5.21594C17.8481 4.91262 17.7296 4.62766 17.5148 4.4136C17.3005 4.19983 17.0159 4.08216 16.7132 4.08216C16.7126 4.08216 16.7121 4.08216 16.7115 4.08216L12.6151 4.08792C12.3118 4.08831 12.027 4.20686 11.8128 4.42161C11.5987 4.63636 11.481 4.92161 11.4814 5.22503L11.4928 12.1671L5.68818 17.6352C5.19561 18.0991 4.91328 18.7272 4.89307 19.4035C4.87285 20.0799 5.11729 20.7237 5.58125 21.216C6.04512 21.7086 6.67314 21.991 7.34961 22.0113C7.37549 22.012 7.40137 22.0124 7.42725 22.0124C8.0752 22.0124 8.68877 21.7693 9.16231 21.323L11.3741 19.2394L11.3829 25.5178C10.6673 25.4136 9.94326 25.3589 9.21592 25.3589H7.99473V24.931C7.99473 23.4944 6.82588 22.3255 5.38926 22.3255H3.10547C1.66885 22.3254 0.5 23.4942 0.5 24.9309L0.5 36.1143C0.5 36.5084 0.819531 36.828 1.21367 36.828C1.60781 36.828 1.92734 36.5084 1.92734 36.1143V24.9309C1.92734 24.2813 2.45586 23.7528 3.10547 23.7528H5.38916C6.03877 23.7528 6.56729 24.2813 6.56729 24.9309V26.0725V40.701V41.8314C6.56729 42.481 6.03877 43.0095 5.38916 43.0095H3.10547C2.45586 43.0095 1.92734 42.481 1.92734 41.8314V40.5825C1.92734 40.1884 1.60781 39.8689 1.21367 39.8689C0.819531 39.8689 0.5 40.1884 0.5 40.5825V41.8314C0.5 43.268 1.66885 44.4368 3.10547 44.4368H5.38916C6.82578 44.4368 7.99463 43.2681 7.99463 41.8314V41.7344L18.4462 45.6922C18.4655 45.6995 18.4852 45.706 18.5051 45.7116C18.9595 45.8399 19.4137 45.9042 19.8621 45.9042C20.1047 45.9042 20.3456 45.8854 20.5841 45.8477L35.9436 43.6336C35.9472 43.6331 35.9507 43.6325 35.9543 43.632C37.2602 43.4235 38.4921 42.8714 39.5168 42.0357C39.5257 42.0284 39.5345 42.0209 39.543 42.0132L49.4659 33.0886C50.6215 32.0627 50.8372 30.3257 49.968 29.0482ZM16.4216 5.50999L16.4249 7.52073L12.9179 10.8244L12.9092 5.51477L16.4216 5.50999ZM25.3185 6.10315L37.871 17.8621L37.8928 33.4474L35.8722 34.7997L33.7324 34.6797L33.6759 34.1114C33.4768 32.1096 31.999 30.4993 30.045 30.1151L30.0321 20.8431C30.0312 20.1316 29.4519 19.5533 28.7404 19.5533C28.7398 19.5533 28.7394 19.5533 28.7387 19.5533L21.9365 19.5629C21.5915 19.5634 21.2673 19.6982 21.0237 19.9425C20.7801 20.1867 20.6462 20.5114 20.6467 20.8563L20.658 28.9404C19.3106 28.6324 18.0241 28.1237 16.8213 27.42C16.6712 27.3323 16.5196 27.2475 16.3668 27.1651C16.3072 27.1329 16.2467 27.1028 16.1866 27.0714C16.0937 27.0229 16.0009 26.9741 15.9069 26.9275C15.8321 26.8904 15.7564 26.8552 15.6811 26.8194C15.6011 26.7814 15.5212 26.743 15.4406 26.7064C15.3586 26.6692 15.2759 26.6337 15.1933 26.598C15.1178 26.5654 15.0423 26.5325 14.9663 26.5012C14.8813 26.4661 14.7959 26.4324 14.7104 26.399C14.6345 26.3693 14.5585 26.3398 14.4822 26.3113C14.3976 26.2796 14.3125 26.2491 14.2272 26.2191C14.1473 26.1908 14.0672 26.1633 13.9867 26.1365C13.9051 26.1092 13.8232 26.0825 13.741 26.0567C13.6534 26.029 13.5654 26.0027 13.4773 25.9766C13.4017 25.9543 13.3261 25.9321 13.25 25.911C13.1507 25.8833 13.0509 25.8574 12.951 25.8319C12.9042 25.8199 12.8577 25.8063 12.8106 25.7947L12.7996 17.8964L25.3185 6.10315ZM28.6175 29.9365L22.6482 29.2492L22.0858 29.1845L22.0743 20.9901L28.605 20.9809L28.6175 29.9365ZM48.5149 32.0244L38.6018 40.9403C37.7757 41.6101 36.7848 42.0532 35.7345 42.2217L20.3816 44.4348C20.3784 44.4353 20.3753 44.4358 20.3721 44.4363L20.3614 44.4379C19.8963 44.5115 19.4119 44.4805 18.9216 44.3459L7.99473 40.208V26.7862H9.21592C10.2555 26.7862 11.288 26.9062 12.2935 27.1393C12.3309 27.148 12.3682 27.1569 12.4055 27.1658C12.529 27.1956 12.6522 27.2263 12.7749 27.2595C12.7856 27.2624 12.7963 27.2656 12.807 27.2685C12.93 27.3021 13.0524 27.3375 13.1745 27.3745C13.1964 27.3812 13.2184 27.3877 13.2401 27.3945C13.37 27.4346 13.4993 27.4765 13.6279 27.5204C13.6412 27.525 13.6544 27.5297 13.6677 27.5343C13.9355 27.6268 14.2008 27.7277 14.4627 27.8368C14.477 27.8428 14.4912 27.8488 14.5055 27.8548C14.636 27.9097 14.7658 27.9664 14.8947 28.0254C14.8981 28.027 14.9017 28.0286 14.9051 28.0303C15.0297 28.0875 15.1534 28.1469 15.2764 28.2079C15.2908 28.2151 15.3054 28.2221 15.3198 28.2293C15.4399 28.2894 15.5591 28.3516 15.6775 28.4153C15.6999 28.4273 15.7222 28.4396 15.7445 28.4517C15.8641 28.5168 15.9829 28.5832 16.1006 28.6521C17.7989 29.6455 19.6478 30.289 21.5958 30.5647C21.602 30.5656 21.608 30.5663 21.6142 30.567L29.6104 31.4876C29.6546 31.494 29.6985 31.5013 29.7422 31.5095C30.9193 31.7306 31.8484 32.6004 32.1593 33.7331C32.2054 33.9009 32.2378 34.0745 32.2556 34.2526L32.2873 34.5719L17.301 33.2589C16.9086 33.2246 16.5621 33.515 16.5277 33.9075C16.4933 34.3002 16.7838 34.6464 17.1764 34.6808L33.0203 36.069C33.0241 36.0693 33.0278 36.0692 33.0315 36.0695C33.0353 36.0698 33.0389 36.0703 33.0427 36.0706L36.0307 36.2383C36.044 36.2391 36.0573 36.2394 36.0706 36.2394C36.0848 36.2394 36.0987 36.2371 36.1128 36.2363C36.1287 36.2353 36.1446 36.2347 36.1604 36.2327C36.1817 36.23 36.2025 36.2254 36.2234 36.2208C36.2384 36.2175 36.2534 36.2151 36.2681 36.2108C36.2909 36.2042 36.3129 36.1953 36.3351 36.1865C36.347 36.1817 36.3593 36.1781 36.371 36.1726C36.4043 36.1572 36.4367 36.1394 36.4676 36.1187L39.0039 34.4213C39.004 34.4212 39.0041 34.4211 39.0042 34.421L46.4946 29.4081C47.2482 28.9016 48.277 29.1003 48.7878 29.8511C49.2548 30.5372 49.1389 31.4703 48.5149 32.0244Z" fill="#FF910E"/>
</svg>
