<svg width="234" height="147" viewBox="0 0 234 147" fill="none" xmlns="http://www.w3.org/2000/svg">
<path fill-rule="evenodd" clip-rule="evenodd" d="M78.8848 57.8951C72.5087 65.1585 73.228 76.2156 80.4914 82.5916C87.7549 88.9677 98.8119 88.2484 105.188 80.985L174.578 1.93822C180.954 -5.32521 180.235 -16.3822 172.971 -22.7583C165.708 -29.1344 154.651 -28.4151 148.275 -21.1516L78.8848 57.8951ZM6.49144 101.592C-0.77199 95.2156 -1.49133 84.1585 4.88476 76.8951L88.1791 -17.9912C94.5552 -25.2546 105.612 -25.9739 112.876 -19.5978C120.139 -13.2218 120.858 -2.16474 114.482 5.09869L31.188 99.985C24.8119 107.248 13.7549 107.968 6.49144 101.592ZM141.491 142.592C134.228 136.216 133.509 125.159 139.885 117.895L231.002 14.0975C237.378 6.83408 248.435 6.11474 255.698 12.4908C262.962 18.8669 263.681 29.9239 257.305 37.1874L166.188 140.985C159.812 148.248 148.755 148.968 141.491 142.592ZM182.769 33.4305C175.505 27.0544 174.786 15.9974 181.162 8.73399L205.686 -19.2026C212.062 -26.466 223.119 -27.1854 230.382 -20.8093C237.646 -14.4332 238.365 -3.37617 231.989 3.88726L207.465 31.8238C201.089 39.0872 190.032 39.8066 182.769 33.4305ZM101.364 98.4002C94.9882 105.664 95.7075 116.721 102.971 123.097C110.234 129.473 121.291 128.754 127.667 121.49L179.989 61.8873C186.365 54.6238 185.646 43.5668 178.382 37.1907C171.119 30.8147 160.062 31.534 153.686 38.7974L101.364 98.4002Z" fill="#F8F4F4"/>
</svg>
