<svg width="226" height="148" viewBox="0 0 226 148" fill="none" xmlns="http://www.w3.org/2000/svg">
<path fill-rule="evenodd" clip-rule="evenodd" d="M147.651 89.9384C154.027 82.6749 153.308 71.6179 146.045 65.2419C138.781 58.8658 127.724 59.5851 121.348 66.8485L51.9583 145.895C45.5822 153.159 46.3015 164.216 53.565 170.592C60.8284 176.968 71.8854 176.249 78.2615 168.985L147.651 89.9384ZM220.045 46.2419C227.308 52.6179 228.027 63.6749 221.651 70.9384L138.357 165.825C131.981 173.088 120.924 173.807 113.66 167.431C106.397 161.055 105.678 149.998 112.054 142.735L195.348 47.8485C201.724 40.5851 212.781 39.8658 220.045 46.2419ZM85.0447 5.24185C92.3081 11.6179 93.0275 22.6749 86.6514 29.9384L-4.46565 133.736C-10.8417 140.999 -21.8988 141.719 -29.1622 135.343C-36.4256 128.967 -37.145 117.91 -30.7689 110.646L60.3482 6.84854C66.7242 -0.414886 77.7813 -1.13423 85.0447 5.24185ZM43.7673 114.403C51.0308 120.779 51.7501 131.836 45.374 139.1L20.8504 167.036C14.4743 174.299 3.41728 175.019 -3.84615 168.643C-11.1096 162.267 -11.8289 151.21 -5.45284 143.946L19.0708 116.01C25.4469 108.746 36.5039 108.027 43.7673 114.403ZM125.172 49.4333C131.548 42.1698 130.829 31.1128 123.565 24.7367C116.302 18.3606 105.245 19.08 98.8687 26.3434L46.5473 85.9462C40.1712 93.2097 40.8906 104.267 48.154 110.643C55.4174 117.019 66.4744 116.299 72.8505 109.036L125.172 49.4333Z" fill="#F8F4F4"/>
</svg>
