<svg width="31" height="31" viewBox="0 0 31 31" fill="none" xmlns="http://www.w3.org/2000/svg">
<path d="M11.4271 0.1875C14.408 0.1875 17.2668 1.37167 19.3747 3.4795C21.4825 5.58733 22.6667 8.44616 22.6667 11.4271C22.6667 14.211 21.6465 16.7702 19.9692 18.7415L20.436 19.2083H21.8021L30.4479 27.8542L27.8542 30.4479L19.2083 21.8021V20.436L18.7415 19.9692C16.7702 21.6465 14.211 22.6667 11.4271 22.6667C8.44616 22.6667 5.58733 21.4825 3.4795 19.3747C1.37167 17.2668 0.1875 14.408 0.1875 11.4271C0.1875 8.44616 1.37167 5.58733 3.4795 3.4795C5.58733 1.37167 8.44616 0.1875 11.4271 0.1875V0.1875ZM11.4271 3.64583C7.10417 3.64583 3.64583 7.10417 3.64583 11.4271C3.64583 15.75 7.10417 19.2083 11.4271 19.2083C15.75 19.2083 19.2083 15.75 19.2083 11.4271C19.2083 7.10417 15.75 3.64583 11.4271 3.64583Z" fill="white"/>
</svg>
