<svg width="50" height="50" viewBox="0 0 50 50" fill="none" xmlns="http://www.w3.org/2000/svg">
<path d="M49.4486 38.3913L48.6389 36.2126C48.451 35.7072 47.8892 35.4496 47.3835 35.6375C46.878 35.8253 46.6205 36.3873 46.8084 36.8928L47.618 39.0716C48.3879 41.1434 48.1059 43.3724 46.8443 45.1872C45.5827 47.002 43.5915 48.0428 41.3812 48.0428C39.0568 48.0428 36.9402 46.8619 35.7193 44.884L34.7306 43.2822C35.0894 42.6732 35.2961 41.9644 35.2961 41.2079C35.2961 38.9466 33.4564 37.107 31.1951 37.107C29.2703 37.107 27.6519 38.4403 27.2126 40.2315H22.7873C22.348 38.4403 20.7295 37.107 18.8048 37.107C16.5435 37.107 14.7038 38.9466 14.7038 41.2079C14.7038 41.9643 14.9106 42.6731 15.2692 43.2821L14.2805 44.884C13.0596 46.8619 10.943 48.0428 8.61863 48.0428C6.40841 48.0428 4.41721 47.002 3.15558 45.1872C1.89396 43.3724 1.61187 41.1434 2.38187 39.0716L7.0629 26.4754C8.25911 23.2565 11.3701 21.0938 14.804 21.0938H35.1961C38.63 21.0938 41.741 23.2564 42.9372 26.4754L43.7469 28.6544C43.9348 29.1599 44.4969 29.4175 45.0023 29.2295C45.5078 29.0417 45.7653 28.4797 45.5774 27.9742L44.7677 25.7951C43.2886 21.815 39.442 19.1409 35.1961 19.1409H32.9207C32.4565 16.4821 30.1332 14.4541 27.3435 14.4541H25.9765V13.7218C25.9765 10.8414 23.6331 8.49799 20.7526 8.49799H10.5003C8.69664 8.49799 7.22929 7.03063 7.22929 5.227C7.22929 3.42336 8.69664 1.956 10.5003 1.956L25.0124 1.956C25.5517 1.956 25.9889 1.51886 25.9889 0.979589C25.9889 0.440315 25.5517 0.00317383 25.0124 0.00317383L10.5003 0.00317383C7.61985 0.00317383 5.27646 2.34657 5.27646 5.227C5.27646 8.10742 7.61985 10.4508 10.5003 10.4508H20.7526C22.5563 10.4508 24.0236 11.9182 24.0236 13.7218V14.4541H22.6567C19.867 14.4541 17.5437 16.4821 17.0795 19.1409H14.804C10.5581 19.1409 6.71149 21.815 5.23242 25.7951L0.551385 38.3913C-0.444559 41.0712 -0.0797703 43.9545 1.55221 46.302C3.18409 48.6494 5.75978 49.9957 8.61882 49.9957C11.6254 49.9957 14.3632 48.4682 15.9423 45.9098L16.6802 44.7145C17.3002 45.0917 18.0277 45.3091 18.805 45.3091C20.7298 45.3091 22.3482 43.9758 22.7875 42.1845H27.2127C27.652 43.9758 29.2705 45.3091 31.1952 45.3091C31.9724 45.3091 32.6998 45.0917 33.3198 44.7146L34.0576 45.9098C35.6368 48.4683 38.3746 49.9957 41.3812 49.9957C44.2401 49.9957 46.8158 48.6494 48.4477 46.302C50.0798 43.9545 50.4446 41.0712 49.4486 38.3913V38.3913ZM22.6567 16.407H27.3435C29.0517 16.407 30.4939 17.5671 30.9235 19.1409H19.0766C19.5062 17.5672 20.9485 16.407 22.6567 16.407V16.407ZM18.8049 43.3561C17.6204 43.3561 16.6568 42.3925 16.6568 41.208C16.6568 40.0235 17.6204 39.0599 18.8049 39.0599C19.9894 39.0599 20.953 40.0235 20.953 41.208C20.953 42.3924 19.9894 43.3561 18.8049 43.3561ZM29.0472 41.208C29.0472 40.0235 30.0108 39.0599 31.1953 39.0599C32.3798 39.0599 33.3434 40.0235 33.3434 41.208C33.3434 42.3925 32.3798 43.3561 31.1953 43.3561C30.0108 43.3561 29.0472 42.3924 29.0472 41.208Z" fill="#FF910E"/>
<path d="M34.0658 29.9633C34.0658 31.6862 35.4674 33.0879 37.1903 33.0879C38.9132 33.0879 40.3149 31.6862 40.3149 29.9633C40.3149 28.2405 38.9132 26.8388 37.1903 26.8388C35.4674 26.8388 34.0658 28.2405 34.0658 29.9633ZM38.362 29.9633C38.362 30.6094 37.8364 31.135 37.1903 31.135C36.5442 31.135 36.0186 30.6094 36.0186 29.9633C36.0186 29.3172 36.5442 28.7916 37.1903 28.7916C37.8364 28.7916 38.362 29.3173 38.362 29.9633Z" fill="#FF910E"/>
<path d="M25.4733 29.9633C25.4733 31.6862 26.8749 33.0879 28.5978 33.0879C30.3207 33.0879 31.7223 31.6862 31.7223 29.9633C31.7223 28.2405 30.3207 26.8388 28.5978 26.8388C26.8749 26.8388 25.4733 28.2405 25.4733 29.9633ZM29.7695 29.9633C29.7695 30.6094 29.2439 31.135 28.5978 31.135C27.9517 31.135 27.4261 30.6094 27.4261 29.9633C27.4261 29.3172 27.9517 28.7916 28.5978 28.7916C29.2439 28.7916 29.7695 29.3173 29.7695 29.9633Z" fill="#FF910E"/>
<path d="M15.3485 24.3002C13.7969 24.3002 12.5232 25.5129 12.4253 27.0402C10.898 27.1382 9.6853 28.4118 9.6853 29.9634C9.6853 31.5151 10.898 32.7888 12.4253 32.8866C12.5233 34.4139 13.7969 35.6267 15.3485 35.6267C16.9001 35.6267 18.1739 34.4139 18.2717 32.8866C19.799 32.7888 21.0117 31.5151 21.0117 29.9634C21.0117 28.4118 19.799 27.1382 18.2717 27.0402C18.1738 25.5128 16.9 24.3002 15.3485 24.3002ZM19.0589 29.9633C19.0589 30.5017 18.6209 30.9398 18.0825 30.9398H17.3013C16.7621 30.9398 16.3249 31.3769 16.3249 31.9162V32.6973C16.3249 33.2357 15.8869 33.6737 15.3485 33.6737C14.8101 33.6737 14.3721 33.2357 14.3721 32.6973V31.9162C14.3721 31.3769 13.935 30.9398 13.3957 30.9398H12.6145C12.0762 30.9398 11.6381 30.5017 11.6381 29.9633C11.6381 29.425 12.0762 28.9869 12.6145 28.9869H13.3957C13.935 28.9869 14.3721 28.5498 14.3721 28.0105V27.2294C14.3721 26.691 14.8101 26.253 15.3485 26.253C15.8869 26.253 16.3249 26.691 16.3249 27.2294V28.0105C16.3249 28.5498 16.7621 28.9869 17.3013 28.9869H18.0825C18.6209 28.9869 19.0589 29.425 19.0589 29.9633Z" fill="#FF910E"/>
<path d="M45.2167 32.4334C45.2167 32.6912 45.3212 32.9421 45.5028 33.1247C45.6844 33.3063 45.9353 33.4108 46.1931 33.4108C46.4499 33.4108 46.7018 33.3063 46.8834 33.1247C47.065 32.9421 47.1695 32.6912 47.1695 32.4334C47.1695 32.1766 47.065 31.9247 46.8834 31.7431C46.7018 31.5614 46.4499 31.457 46.1931 31.457C45.9353 31.457 45.6844 31.5614 45.5028 31.7431C45.3212 31.9247 45.2167 32.1767 45.2167 32.4334Z" fill="#FF910E"/>
</svg>
