<svg width="51" height="50" viewBox="0 0 51 50" fill="none" xmlns="http://www.w3.org/2000/svg">
<path d="M48.1562 41.4062H42.6875V25.7119C43.1706 25.6126 43.6263 25.4092 44.023 25.116C44.4196 24.8228 44.7476 24.4467 44.9842 24.0139C45.2208 23.5812 45.3603 23.1021 45.3931 22.6099C45.4258 22.1178 45.351 21.6244 45.1738 21.1641L42.6875 14.6982V2.34375C42.6875 2.24115 42.6673 2.13954 42.6281 2.04475C42.5888 1.94995 42.5313 1.86381 42.4587 1.79126C42.3862 1.71871 42.3001 1.66117 42.2053 1.62191C42.1105 1.58266 42.0089 1.56247 41.9062 1.5625L9.09375 1.5625C8.99115 1.56247 8.88954 1.58266 8.79475 1.62191C8.69995 1.66117 8.61381 1.71871 8.54126 1.79126C8.46871 1.86381 8.41117 1.94995 8.37191 2.04475C8.33266 2.13954 8.31247 2.24115 8.3125 2.34375V14.6982L5.82617 21.1641C5.649 21.6244 5.57419 22.1178 5.60694 22.6099C5.63969 23.1021 5.77922 23.5812 6.01582 24.0139C6.25243 24.4467 6.58043 24.8228 6.97705 25.116C7.37366 25.4092 7.82937 25.6126 8.3125 25.7119V41.4062H2.84375C2.74115 41.4062 2.63954 41.4264 2.54475 41.4657C2.44995 41.5049 2.36381 41.5625 2.29126 41.635C2.21871 41.7076 2.16117 41.7937 2.12191 41.8885C2.08266 41.9833 2.06247 42.0849 2.0625 42.1875V47.6562C2.06247 47.7589 2.08266 47.8605 2.12191 47.9553C2.16117 48.0501 2.21871 48.1362 2.29126 48.2087C2.36381 48.2813 2.44995 48.3388 2.54475 48.3781C2.63954 48.4173 2.74115 48.4375 2.84375 48.4375H48.1562C48.2589 48.4375 48.3605 48.4173 48.4553 48.3781C48.5501 48.3388 48.6362 48.2813 48.7087 48.2087C48.7813 48.1362 48.8388 48.0501 48.8781 47.9553C48.9173 47.8605 48.9375 47.7589 48.9375 47.6562V42.1875C48.9375 42.0849 48.9173 41.9833 48.8781 41.8885C48.8388 41.7937 48.7813 41.7076 48.7087 41.635C48.6362 41.5625 48.5501 41.5049 48.4553 41.4657C48.3605 41.4264 48.2589 41.4062 48.1562 41.4062V41.4062ZM39.5625 41.4062V24.7432C39.99 25.1863 40.5302 25.5047 41.125 25.664V41.4062H39.5625ZM33.3125 42.1875V46.875H30.1875V41.4062H31.75C31.9572 41.4062 32.1559 41.3239 32.3024 41.1774C32.4489 41.0309 32.5312 40.8322 32.5312 40.625V38.2812C32.5312 38.0741 32.4489 37.8753 32.3024 37.7288C32.1559 37.5823 31.9572 37.5 31.75 37.5H27.0625C26.8553 37.5 26.6566 37.5823 26.5101 37.7288C26.3636 37.8753 26.2813 38.0741 26.2812 38.2812V40.625C26.2813 40.8322 26.3636 41.0309 26.5101 41.1774C26.6566 41.3239 26.8553 41.4062 27.0625 41.4062H28.625V46.875H25.5V42.1875C25.5 42.0849 25.4798 41.9833 25.4406 41.8885C25.4013 41.7937 25.3438 41.7076 25.2712 41.635C25.1987 41.5625 25.1126 41.5049 25.0178 41.4657C24.923 41.4264 24.8214 41.4062 24.7188 41.4062H23.1562V39.0625C23.1563 38.9599 23.1361 38.8583 23.0968 38.7635C23.0576 38.6687 23 38.5826 22.9275 38.51C22.8549 38.4375 22.7688 38.3799 22.674 38.3407C22.5792 38.3014 22.4776 38.2812 22.375 38.2812H20.8125V25.71C21.5699 25.5532 22.251 25.1425 22.7432 24.5459C22.791 24.6055 22.8418 24.6631 22.8955 24.7197C23.2118 25.0565 23.594 25.3246 24.0184 25.5073C24.4428 25.6899 24.9003 25.7832 25.3623 25.7812H25.6377C26.0997 25.7832 26.5572 25.6899 26.9816 25.5073C27.406 25.3246 27.7882 25.0565 28.1045 24.7197C28.1582 24.6631 28.209 24.6055 28.2568 24.5459C28.3696 24.6819 28.4927 24.809 28.625 24.9261V27.3438C27.5893 27.3448 26.5963 27.7567 25.864 28.489C25.1317 29.2214 24.7198 30.2143 24.7187 31.25C24.7187 31.3526 24.7389 31.4542 24.7782 31.549C24.8174 31.6438 24.875 31.7299 24.9475 31.8025C25.0201 31.875 25.1062 31.9326 25.201 31.9718C25.2958 32.0111 25.3974 32.0313 25.5 32.0312H33.3125C33.4151 32.0313 33.5167 32.0111 33.6115 31.9718C33.7063 31.9326 33.7924 31.875 33.865 31.8025C33.9375 31.7299 33.9951 31.6438 34.0343 31.549C34.0736 31.4542 34.0938 31.3526 34.0937 31.25C34.0927 30.2143 33.6808 29.2214 32.9485 28.489C32.2161 27.7567 31.2232 27.3448 30.1875 27.3438V25.71C30.4146 25.7575 30.6459 25.7814 30.8779 25.7812H31.1221C31.6151 25.7816 32.1023 25.6745 32.5498 25.4674C32.9972 25.2603 33.3941 24.9582 33.7129 24.582C33.7334 24.5586 33.7529 24.5342 33.7715 24.5098C34.0897 24.9078 34.4936 25.2289 34.9532 25.4491C35.4128 25.6693 35.9162 25.7828 36.4258 25.7812H36.5771C37.0681 25.7821 37.5535 25.6769 38 25.4726V38.2812H36.4375C36.3349 38.2812 36.2333 38.3014 36.1385 38.3407C36.0437 38.3799 35.9576 38.4375 35.885 38.51C35.8125 38.5826 35.7549 38.6687 35.7157 38.7635C35.6764 38.8583 35.6562 38.9599 35.6562 39.0625V41.4062H34.0938C33.9911 41.4062 33.8895 41.4264 33.7947 41.4657C33.6999 41.5049 33.6138 41.5625 33.5413 41.635C33.4687 41.7076 33.4112 41.7937 33.3719 41.8885C33.3327 41.9833 33.3125 42.0849 33.3125 42.1875V42.1875ZM27.8438 39.8438V39.0625H30.9688V39.8438H27.8438ZM12.6523 21.9014L14.377 15.625H17.5479L16.3848 22.6826C16.3151 23.1122 16.0946 23.5029 15.7627 23.7845C15.4308 24.0661 15.0094 24.22 14.5742 24.2188H14.4229C14.1408 24.2186 13.8625 24.1535 13.6097 24.0284C13.3568 23.9034 13.1362 23.7217 12.965 23.4976C12.7937 23.2734 12.6764 23.0128 12.6222 22.736C12.568 22.4592 12.5783 22.1736 12.6523 21.9014V21.9014ZM13 25.4726C13.4465 25.6769 13.9319 25.7821 14.4229 25.7812H14.5742C15.0838 25.7828 15.5872 25.6693 16.0468 25.4491C16.5064 25.2289 16.9103 24.9078 17.2285 24.5098C17.2471 24.5342 17.2666 24.5586 17.2871 24.582C17.7909 25.1765 18.4841 25.5793 19.25 25.7226V29.6875H13V25.4726ZM19.8779 24.2188C19.6116 24.2189 19.3485 24.161 19.1068 24.0492C18.8651 23.9374 18.6507 23.7743 18.4784 23.5712C18.3061 23.3682 18.1801 23.13 18.1091 22.8734C18.0382 22.6167 18.0239 22.3477 18.0674 22.085L19.1318 15.625H22.3311L21.9541 22.4844C21.9284 22.9529 21.7241 23.3937 21.3834 23.7163C21.0427 24.0389 20.5913 24.2187 20.1221 24.2188H19.8779ZM26.9697 23.6455C26.7989 23.8273 26.5925 23.972 26.3633 24.0706C26.1341 24.1692 25.8872 24.2196 25.6377 24.2188H25.3623C25.1133 24.2187 24.8669 24.168 24.6382 24.0697C24.4094 23.9714 24.203 23.8275 24.0316 23.6469C23.8602 23.4663 23.7274 23.2527 23.6412 23.0191C23.555 22.7855 23.5173 22.5367 23.5303 22.2881L23.8955 15.625H27.1045L27.4697 22.2832V22.2881C27.484 22.5365 27.447 22.7853 27.3609 23.0188C27.2749 23.2523 27.1418 23.4657 26.9697 23.6455ZM29.0459 22.4844L28.6689 15.625H31.8682L32.9326 22.085C32.9761 22.3477 32.9618 22.6167 32.8909 22.8734C32.8199 23.13 32.6939 23.3682 32.5216 23.5712C32.3493 23.7743 32.1349 23.9374 31.8932 24.0492C31.6515 24.161 31.3884 24.2189 31.1221 24.2188H30.8779C30.4087 24.2187 29.9573 24.0389 29.6166 23.7163C29.2759 23.3937 29.0716 22.9529 29.0459 22.4844V22.4844ZM30.1875 28.9062C30.6721 28.9068 31.1446 29.0573 31.5403 29.3371C31.9359 29.6168 32.2353 30.0121 32.3975 30.4688H26.415C26.5772 30.0121 26.8766 29.6168 27.2722 29.3371C27.6679 29.0573 28.1404 28.9068 28.625 28.9062H30.1875ZM38.0361 23.4961C37.8657 23.7215 37.6451 23.9042 37.3919 24.0296C37.1387 24.155 36.8597 24.2198 36.5771 24.2188H36.4258C35.9906 24.22 35.5692 24.0661 35.2373 23.7845C34.9054 23.5029 34.6849 23.1122 34.6152 22.6826L33.4521 15.625H36.623L38.3467 21.8975C38.3467 21.8984 38.3477 21.9004 38.3477 21.9014C38.4226 22.1732 38.4334 22.4587 38.3794 22.7354C38.3253 23.0121 38.2078 23.2725 38.0361 23.4961V23.4961ZM37.2188 39.8438H38V41.4062H37.2188V39.8438ZM43.7158 21.7246C43.8228 22.0026 43.8605 22.3025 43.8256 22.5983C43.7908 22.8941 43.6845 23.177 43.5158 23.4225C43.3472 23.6681 43.1214 23.8689 42.8578 24.0076C42.5942 24.1463 42.3008 24.2188 42.0029 24.2188C41.6012 24.2178 41.2108 24.0856 40.8913 23.8421C40.5718 23.5985 40.3408 23.2572 40.2334 22.8701L38.2432 15.625H41.3701L43.7158 21.7246ZM9.875 3.125H41.125V14.0625H9.875V3.125ZM7.48437 23.4229C7.31366 23.1782 7.20605 22.8951 7.17112 22.5989C7.1362 22.3026 7.17503 22.0023 7.28418 21.7246L9.62988 15.625H12.7568L10.7666 22.8701C10.6592 23.2572 10.4282 23.5985 10.1087 23.8421C9.78917 24.0856 9.39878 24.2178 8.99707 24.2188C8.69888 24.2209 8.40478 24.1494 8.14088 24.0106C7.87698 23.8717 7.65147 23.6698 7.48437 23.4229V23.4229ZM9.875 25.664C10.4698 25.5047 11.01 25.1863 11.4375 24.7432V41.4062H9.875V25.664ZM16.125 46.875H3.625V42.9688H16.125V46.875ZM16.9062 41.4062H13V31.25H19.25V46.875H17.6875V42.1875C17.6875 42.0849 17.6673 41.9833 17.6281 41.8885C17.5888 41.7937 17.5313 41.7076 17.4587 41.635C17.3862 41.5625 17.3001 41.5049 17.2053 41.4657C17.1105 41.4264 17.0089 41.4062 16.9062 41.4062V41.4062ZM20.8125 39.8438H21.5938V42.1875C21.5937 42.2901 21.6139 42.3917 21.6532 42.4865C21.6924 42.5813 21.75 42.6674 21.8225 42.74C21.8951 42.8125 21.9812 42.8701 22.076 42.9093C22.1708 42.9486 22.2724 42.9688 22.375 42.9688H23.9375V46.875H20.8125V39.8438ZM47.375 46.875H34.875V42.9688H47.375V46.875Z" fill="#FF910E"/>
<path d="M30.9688 9.375H30.1211C29.9574 8.41618 29.5 7.53183 28.8122 6.84402C28.1244 6.15621 27.2401 5.69886 26.2812 5.5351V4.6875C26.2812 4.4803 26.1989 4.28159 26.0524 4.13507C25.9059 3.98856 25.7072 3.90625 25.5 3.90625C25.2928 3.90625 25.0941 3.98856 24.9476 4.13507C24.8011 4.28159 24.7188 4.4803 24.7188 4.6875V5.5351C23.7599 5.69886 22.8756 6.15621 22.1878 6.84402C21.5 7.53183 21.0426 8.41618 20.8789 9.375H20.0312C19.8241 9.375 19.6253 9.45731 19.4788 9.60383C19.3323 9.75034 19.25 9.94905 19.25 10.1562C19.2509 10.9848 19.5805 11.7791 20.1663 12.3649C20.7522 12.9508 21.5465 13.2803 22.375 13.2812H28.625C29.4535 13.2803 30.2478 12.9508 30.8337 12.3649C31.4195 11.7791 31.7491 10.9848 31.75 10.1562C31.75 9.94905 31.6677 9.75034 31.5212 9.60383C31.3747 9.45731 31.1759 9.375 30.9688 9.375V9.375ZM25.5 7.03125C26.1926 7.03214 26.8654 7.26269 27.413 7.68679C27.9606 8.1109 28.3521 8.70462 28.5262 9.375H22.4738C22.6479 8.70462 23.0394 8.1109 23.587 7.68679C24.1346 7.26269 24.8074 7.03214 25.5 7.03125V7.03125ZM28.625 11.7188H22.375C22.1008 11.7186 21.8315 11.6463 21.594 11.5092C21.3566 11.3721 21.1594 11.1749 21.0222 10.9375H29.9778C29.8406 11.1749 29.6434 11.3721 29.406 11.5092C29.1685 11.6463 28.8992 11.7186 28.625 11.7188Z" fill="#FF910E"/>
<path d="M19.6833 7.68127C19.7904 7.60994 19.8781 7.51328 19.9388 7.39989C19.9995 7.28649 20.0313 7.15986 20.0312 7.03125V4.6875H18.4688V6.58512C18.2209 6.71163 17.9585 6.80758 17.6875 6.87086V4.6875H16.125V6.87087C15.854 6.80758 15.5916 6.71163 15.3438 6.58512V4.6875H13.7813V7.03125C13.7812 7.15986 13.813 7.28649 13.8737 7.39989C13.9344 7.51328 14.0221 7.60994 14.1292 7.68127C14.7303 8.08266 15.4111 8.34916 16.125 8.46248V13.2812H17.6875V8.46248C18.4014 8.34916 19.0822 8.08266 19.6833 7.68127V7.68127Z" fill="#FF910E"/>
<path d="M34.0938 3.90625C33.3331 3.9063 32.5986 4.18374 32.0279 4.68657C31.4572 5.1894 31.0895 5.88311 30.9937 6.63767C30.8978 7.39223 31.0805 8.15584 31.5073 8.78538C31.9342 9.41492 32.5761 9.86716 33.3125 10.0574V13.2812H34.875V10.0574C35.6115 9.86716 36.2533 9.41492 36.6802 8.78538C37.1071 8.15584 37.2897 7.39223 37.1939 6.63767C37.098 5.88311 36.7303 5.1894 36.1596 4.68657C35.5889 4.18374 34.8544 3.9063 34.0938 3.90625V3.90625ZM34.0938 8.59375C33.7847 8.59375 33.4826 8.50211 33.2257 8.33042C32.9687 8.15873 32.7685 7.9147 32.6502 7.62919C32.5319 7.34368 32.501 7.02952 32.5613 6.72642C32.6216 6.42333 32.7704 6.14492 32.9889 5.9264C33.2074 5.70788 33.4858 5.55906 33.7889 5.49877C34.092 5.43848 34.4062 5.46943 34.6917 5.58769C34.9772 5.70595 35.2212 5.90622 35.3929 6.16317C35.5646 6.42012 35.6563 6.72222 35.6563 7.03125C35.6558 7.44551 35.491 7.84266 35.1981 8.13558C34.9052 8.4285 34.508 8.59328 34.0938 8.59375V8.59375Z" fill="#FF910E"/>
</svg>
