<svg width="50" height="50" viewBox="0 0 50 50" fill="none" xmlns="http://www.w3.org/2000/svg">
<path d="M28.5156 20.5078H21.4844C20.945 20.5078 20.5078 20.9451 20.5078 21.4844V28.5156C20.5078 29.0549 20.945 29.4922 21.4844 29.4922H28.5156C29.055 29.4922 29.4922 29.0549 29.4922 28.5156V21.4844C29.4922 20.9451 29.055 20.5078 28.5156 20.5078ZM27.5391 27.5391H22.4609V22.4609H27.5391V27.5391Z" fill="#FF910E"/>
<path d="M46.6797 5.27344C44.8488 5.27344 43.3594 6.76289 43.3594 8.59375C43.3594 10.4246 44.8488 11.9141 46.6797 11.9141C48.5105 11.9141 50 10.4246 50 8.59375C50 6.76289 48.5105 5.27344 46.6797 5.27344ZM46.6797 9.96094C45.9258 9.96094 45.3125 9.34766 45.3125 8.59375C45.3125 7.83984 45.9258 7.22656 46.6797 7.22656C47.4336 7.22656 48.0469 7.83984 48.0469 8.59375C48.0469 9.34766 47.4336 9.96094 46.6797 9.96094Z" fill="#FF910E"/>
<path d="M41.6592 7.90039C41.4775 7.71885 41.2256 7.61426 40.9688 7.61426C40.7109 7.61426 40.459 7.71875 40.2773 7.90039C40.0957 8.08203 39.9922 8.33398 39.9922 8.59082C39.9922 8.84766 40.0957 9.09961 40.2773 9.28125C40.46 9.46279 40.7109 9.56738 40.9688 9.56738C41.2256 9.56738 41.4775 9.46289 41.6592 9.28125C41.8408 9.09961 41.9453 8.84766 41.9453 8.59082C41.9453 8.33398 41.8408 8.08203 41.6592 7.90039Z" fill="#FF910E"/>
<path d="M40.5795 25.9766C40.9975 27.3323 42.262 28.3203 43.753 28.3203C45.5839 28.3203 47.0733 26.8309 47.0733 25C47.0733 23.1691 45.5838 21.6797 43.753 21.6797C42.2619 21.6797 40.9974 22.6677 40.5795 24.0234H34.5703V16.4062C34.5703 15.867 34.1331 15.4297 33.5937 15.4297H32.0312V9.56738H37.5021C38.0415 9.56738 38.4787 9.13008 38.4787 8.59082C38.4787 8.05156 38.0415 7.61426 37.5021 7.61426H31.0547C30.5153 7.61426 30.0781 8.05156 30.0781 8.59082V15.4297H25.9765V9.42061C27.3322 9.00254 28.3203 7.73818 28.3203 6.24707C28.3203 4.41621 26.8308 2.92676 25 2.92676C23.1691 2.92676 21.6797 4.41621 21.6797 6.24707C21.6797 7.73818 22.6678 9.00264 24.0234 9.42061V15.4297H16.4062C15.8669 15.4297 15.4297 15.867 15.4297 16.4062V17.9688H9.56726V6.49473C10.9245 6.07764 11.914 4.8125 11.914 3.32031C11.914 1.48945 10.4246 0 8.59373 0C6.76287 0 5.27341 1.48945 5.27341 3.32031C5.27341 4.81035 6.26003 6.07402 7.61414 6.49297V18.9453C7.61414 19.4846 8.05134 19.9219 8.5907 19.9219H15.4297V24.0234H9.42048C9.00242 22.6677 7.73796 21.6797 6.24695 21.6797C4.41609 21.6797 2.92664 23.1691 2.92664 25C2.92664 26.8309 4.41609 28.3203 6.24695 28.3203C7.73806 28.3203 9.00252 27.3323 9.42048 25.9766H15.4297V33.5938C15.4297 34.133 15.8669 34.5703 16.4062 34.5703H17.9687V40.4326H12.4978C11.9585 40.4326 11.5213 40.8699 11.5213 41.4092C11.5213 41.9484 11.9585 42.3857 12.4978 42.3857H18.9453C19.4846 42.3857 19.9219 41.9484 19.9219 41.4092V34.5703H24.0234V40.5794C22.6678 40.9975 21.6797 42.2618 21.6797 43.7529C21.6797 45.5838 23.1691 47.0732 25 47.0732C26.8308 47.0732 28.3203 45.5838 28.3203 43.7529C28.3203 42.2618 27.3322 40.9974 25.9765 40.5794V34.5703H33.5937C34.1331 34.5703 34.5703 34.133 34.5703 33.5938V32.0312H40.4327V43.5053C39.0755 43.9224 38.0859 45.1875 38.0859 46.6797C38.0859 48.5105 39.5754 50 41.4062 50C43.2371 50 44.7265 48.5105 44.7265 46.6797C44.7265 45.1896 43.7399 43.926 42.3858 43.507V31.0547C42.3858 30.5154 41.9486 30.0781 41.4093 30.0781H34.5703V25.9766H40.5795ZM43.753 23.6328C44.5069 23.6328 45.1202 24.2461 45.1202 25C45.1202 25.7539 44.5068 26.3672 43.753 26.3672C42.9991 26.3672 42.3858 25.7539 42.3858 25C42.3858 24.2461 42.9991 23.6328 43.753 23.6328ZM8.59373 4.6875C7.83982 4.6875 7.22654 4.07422 7.22654 3.32031C7.22654 2.56641 7.83982 1.95312 8.59373 1.95312C9.34763 1.95312 9.96091 2.56641 9.96091 3.32031C9.96091 4.07422 9.34763 4.6875 8.59373 4.6875ZM6.24695 26.3672C5.49304 26.3672 4.87976 25.7539 4.87976 25C4.87976 24.2461 5.49304 23.6328 6.24695 23.6328C7.00085 23.6328 7.61414 24.2461 7.61414 25C7.61414 25.7539 7.00085 26.3672 6.24695 26.3672ZM23.6328 6.24707C23.6328 5.49316 24.2461 4.87988 25 4.87988C25.7539 4.87988 26.3672 5.49316 26.3672 6.24707C26.3672 7.00098 25.7539 7.61426 25 7.61426C24.2461 7.61426 23.6328 7.00098 23.6328 6.24707ZM26.3672 43.7529C26.3672 44.5068 25.7539 45.1201 25 45.1201C24.2461 45.1201 23.6328 44.5068 23.6328 43.7529C23.6328 42.999 24.2461 42.3857 25 42.3857C25.7539 42.3857 26.3672 42.999 26.3672 43.7529ZM32.6172 32.6172H17.3828V17.3828H32.6172V32.6172ZM41.4062 45.3125C42.1601 45.3125 42.7734 45.9258 42.7734 46.6797C42.7734 47.4336 42.1601 48.0469 41.4062 48.0469C40.6523 48.0469 40.039 47.4336 40.039 46.6797C40.039 45.9258 40.6523 45.3125 41.4062 45.3125Z" fill="#FF910E"/>
<path d="M3.32031 38.0859C1.48945 38.0859 0 39.5754 0 41.4062C0 43.2371 1.48945 44.7266 3.32031 44.7266C5.15117 44.7266 6.64062 43.2371 6.64062 41.4062C6.64062 39.5754 5.15117 38.0859 3.32031 38.0859ZM3.32031 42.7734C2.56641 42.7734 1.95312 42.1602 1.95312 41.4062C1.95312 40.6523 2.56641 40.0391 3.32031 40.0391C4.07422 40.0391 4.6875 40.6523 4.6875 41.4062C4.6875 42.1602 4.07422 42.7734 3.32031 42.7734Z" fill="#FF910E"/>
<path d="M9.72363 40.7187C9.54199 40.5371 9.29004 40.4326 9.0332 40.4326C8.77637 40.4326 8.52441 40.537 8.34277 40.7187C8.16113 40.9003 8.05664 41.1522 8.05664 41.4092C8.05664 41.666 8.16113 41.918 8.34277 42.0995C8.52441 42.2812 8.77637 42.3857 9.0332 42.3857C9.29004 42.3857 9.54199 42.2813 9.72363 42.0995C9.90527 41.918 10.0098 41.666 10.0098 41.4092C10.0098 41.1522 9.90527 40.9003 9.72363 40.7187Z" fill="#FF910E"/>
</svg>
