<svg width="51" height="50" viewBox="0 0 51 50" fill="none" xmlns="http://www.w3.org/2000/svg">
<path d="M45.7564 6.98272H36.8057V4.04477C36.8057 3.6405 36.478 3.31274 36.0737 3.31274C35.6693 3.31274 35.3416 3.6405 35.3416 4.04477V6.98272H32.3094C31.905 6.98272 31.5774 7.31047 31.5774 7.71474C31.5774 8.11901 31.905 8.44676 32.3094 8.44676H35.3416V11.5464H34.7922C34.0251 11.5464 33.4009 12.1706 33.4009 12.9377V21.5554C33.4009 22.3226 34.0251 22.9467 34.7922 22.9467H35.3416V28.7542C35.3416 29.1584 35.6693 29.4862 36.0737 29.4862C36.478 29.4862 36.8057 29.1584 36.8057 28.7542V22.9467H37.3551C38.1222 22.9467 38.7463 22.3225 38.7463 21.5554V12.9377C38.7463 12.1705 38.1222 11.5464 37.3551 11.5464H36.8057V8.44676H45.7564C47.5153 8.44676 48.9464 9.87782 48.9464 11.6368V36.691H2.05352V11.6369C2.05352 9.87792 3.48458 8.44686 5.24358 8.44686H18.0757V9.87548H17.5262C16.7591 9.87548 16.135 10.4996 16.135 11.2667V19.8845C16.135 20.6516 16.7592 21.2757 17.5262 21.2757H18.0757V27.7442C18.0757 28.1484 18.4034 28.4762 18.8077 28.4762C19.2119 28.4762 19.5397 28.1484 19.5397 27.7442V21.2757H20.0891C20.8563 21.2757 21.4803 20.6515 21.4803 19.8845V11.2667C21.4803 10.4996 20.8562 9.87548 20.0891 9.87548H19.5397V8.44676H22.5719C22.9762 8.44676 23.304 8.11901 23.304 7.71474C23.304 7.31047 22.9762 6.98272 22.5719 6.98272H19.5397V6.6212C19.5397 6.21692 19.2119 5.88917 18.8077 5.88917C18.4034 5.88917 18.0757 6.21692 18.0757 6.6212V6.98272H5.24358C2.67731 6.98272 0.589478 9.07054 0.589478 11.6368L0.589478 37.4231C0.589478 39.9893 2.67731 42.0772 5.24358 42.0772H16.3868V45.7992L14.0275 48.536H13.091C12.6867 48.536 12.3589 48.8637 12.3589 49.268C12.3589 49.6723 12.6867 50 13.091 50H37.8414C38.2458 50 38.5735 49.6723 38.5735 49.268C38.5735 48.8637 38.2458 48.536 37.8414 48.536H36.9724L34.613 45.7992V42.0772H45.7564C48.3226 42.0772 50.4105 39.9893 50.4105 37.4231V11.6369C50.4105 9.07064 48.3226 6.98272 45.7564 6.98272V6.98272ZM37.2823 21.4828H34.865V13.0106H37.2824V21.4828H37.2823ZM20.0163 19.8117H17.599V11.3395H20.0163V19.8117ZM45.7564 40.6131H30.9411C30.5367 40.6131 30.2091 40.9409 30.2091 41.3451C30.2091 41.7494 30.5367 42.0772 30.9411 42.0772H33.149V45.3392H31.3256C30.9212 45.3392 30.5935 45.6669 30.5935 46.0712C30.5935 46.4755 30.9212 46.8032 31.3256 46.8032H33.5455L35.0394 48.536H15.9605L17.4543 46.8032H19.6743C20.0786 46.8032 20.4063 46.4755 20.4063 46.0712C20.4063 45.6669 20.0786 45.3392 19.6743 45.3392H17.8509V42.0772H27.8214C28.2258 42.0772 28.5534 41.7494 28.5534 41.3451C28.5534 40.9409 28.2258 40.6131 27.8214 40.6131H5.24358C3.73649 40.6131 2.47107 39.5623 2.13922 38.1551H48.8606C48.5289 39.5623 47.2635 40.6131 45.7564 40.6131V40.6131Z" fill="#FF910E"/>
<path d="M8.23398 21.3715C7.8297 21.3715 7.50195 21.6992 7.50195 22.1035V23.8707C7.50195 24.6379 8.12603 25.2619 8.89319 25.2619H9.44259V29.1603C9.44259 29.5646 9.77035 29.8923 10.1746 29.8923C10.5789 29.8923 10.9066 29.5646 10.9066 29.1603V25.2619H11.456C12.2232 25.2619 12.8473 24.6379 12.8473 23.8707V15.2529C12.8473 14.4858 12.2231 13.8616 11.456 13.8616H10.9066V12.6908C10.9066 12.2865 10.5789 11.9587 10.1746 11.9587C9.77035 11.9587 9.44259 12.2865 9.44259 12.6908V13.8616H8.89319C8.12603 13.8616 7.50195 14.4858 7.50195 15.2529V18.9839C7.50195 19.3882 7.8297 19.7159 8.23398 19.7159C8.63825 19.7159 8.966 19.3882 8.966 18.9839V15.3258H10.1737H10.1747C10.1747 15.3258 10.1753 15.3258 10.1757 15.3258H11.3834V23.798H8.966V22.1036C8.966 21.6992 8.63825 21.3715 8.23398 21.3715Z" fill="#FF910E"/>
<path d="M26.1591 19.8272H26.7086V23.7255C26.7086 24.1297 27.0363 24.4575 27.4406 24.4575C27.845 24.4575 28.1727 24.1297 28.1727 23.7255V19.8272H28.7221C29.4891 19.8272 30.1133 19.203 30.1133 18.4359V12.6942C30.1133 12.2899 29.7857 11.9621 29.3813 11.9621C28.9769 11.9621 28.6493 12.2899 28.6493 12.6942V18.3631H26.2319V5.10835H28.6493V9.57457C28.6493 9.97884 28.9769 10.3066 29.3813 10.3066C29.7857 10.3066 30.1133 9.97884 30.1133 9.57457V5.03554C30.1133 4.26847 29.4891 3.6443 28.7221 3.6443H28.1727V0.732023C28.1727 0.327751 27.845 0 27.4406 0C27.0363 0 26.7086 0.327751 26.7086 0.732023V3.6443H26.1591C25.392 3.6443 24.7679 4.26847 24.7679 5.03554V18.4359C24.7679 19.2031 25.392 19.8272 26.1591 19.8272Z" fill="#FF910E"/>
<path d="M40.2981 20.0689C40.4304 20.3142 40.6826 20.4536 40.9431 20.4536C41.0603 20.4536 41.1794 20.4253 41.2899 20.3658L44.6618 18.5477L44.4192 19.1843C44.2752 19.5621 44.4649 19.985 44.8427 20.129C44.9285 20.1616 45.0165 20.1771 45.1032 20.1771C45.3981 20.1771 45.6761 19.9975 45.7874 19.7055L46.6116 17.542C46.7555 17.1642 46.5659 16.7413 46.1881 16.5973L43.8918 15.7225C43.514 15.5786 43.091 15.7682 42.9471 16.146C42.8031 16.5238 42.9927 16.9467 43.3706 17.0907L43.903 17.2935L40.595 19.0771C40.2392 19.269 40.1062 19.713 40.2981 20.0689Z" fill="#FF910E"/>
<path d="M4.91777 34.3719C5.03665 34.6497 5.30691 34.8161 5.59103 34.8161C5.68708 34.8161 5.78478 34.797 5.87877 34.7568L15.3246 30.7142L16.183 32.9633C16.2582 33.1601 16.4144 33.315 16.6119 33.3884C16.8092 33.4617 17.0288 33.4466 17.2143 33.3466L32.8195 24.9327C33.1753 24.7408 33.3083 24.2968 33.1164 23.9409C32.9246 23.5852 32.4807 23.4522 32.1246 23.644L17.2534 31.6621L16.4208 29.4804C16.3497 29.2943 16.206 29.1451 16.0226 29.0674C15.8392 28.9897 15.632 28.9901 15.4488 29.0684L5.30272 33.4108C4.93114 33.57 4.75877 34.0002 4.91777 34.3719V34.3719Z" fill="#FF910E"/>
</svg>
