<svg width="1440" height="142" viewBox="0 0 1440 142" fill="none" xmlns="http://www.w3.org/2000/svg">
<path opacity="0.55" fill-rule="evenodd" clip-rule="evenodd" d="M0 58.1899L9 60.906C18 63.6221 37 69.4422 55 80.6945C74 91.5587 92 108.631 111 119.495C129 130.748 148 136.568 166 125.316C185 114.063 203 86.1266 222 74.8743C240 63.6221 258 69.4422 277 72.1583C295 74.8743 314 74.8743 332 69.4422C351 63.6221 369 52.7578 388 63.6221C406 74.8743 425 108.631 443 108.631C462 108.631 480 74.8743 498 74.8743C517 74.8743 535 108.631 554 116.779C572 125.316 591 108.631 609 105.527C628 102.811 646 114.063 665 102.811C683 91.5587 702 58.1899 720 58.1899C738 58.1899 757 91.5587 775 105.527C794 119.495 812 114.063 831 100.095C849 86.1266 868 63.6221 886 41.5055C905 19.001 923 -3.11559 942 7.74868C960 19.001 978 63.6221 997 72.1583C1015 80.6945 1034 52.7578 1052 52.7578C1071 52.7578 1089 80.6945 1108 83.4106C1126 86.1266 1145 63.6221 1163 52.7578C1182 41.5055 1200 41.5055 1218 58.1899C1237 74.8743 1255 108.631 1274 105.527C1292 102.811 1311 63.6221 1329 35.6854C1348 7.74868 1366 -8.93573 1385 5.03261C1403 19.001 1422 63.6221 1431 86.1266L1440 108.631V142H1431C1422 142 1403 142 1385 142C1366 142 1348 142 1329 142C1311 142 1292 142 1274 142C1255 142 1237 142 1218 142C1200 142 1182 142 1163 142C1145 142 1126 142 1108 142C1089 142 1071 142 1052 142C1034 142 1015 142 997 142C978 142 960 142 942 142C923 142 905 142 886 142C868 142 849 142 831 142C812 142 794 142 775 142C757 142 738 142 720 142C702 142 683 142 665 142C646 142 628 142 609 142C591 142 572 142 554 142C535 142 517 142 498 142C480 142 462 142 443 142C425 142 406 142 388 142C369 142 351 142 332 142C314 142 295 142 277 142C258 142 240 142 222 142C203 142 185 142 166 142C148 142 129 142 111 142C92 142 74 142 55 142C37 142 18 142 9 142H0V58.1899Z" fill="#241E1E"/>
</svg>
